<svg width="700" height="700" viewBox="0 0 700 700" fill="none" xmlns="http://www.w3.org/2000/svg">
<rect width="700" height="700" fill="#0B032C"/>
<path opacity="0.8" d="M153.4 323.6L154.968 322.359L153.666 320.714L152.085 322.093L153.4 323.6ZM151.3 338.2L152.447 339.838L152.461 339.829L152.474 339.819L151.3 338.2ZM131.9 340.2L131.589 342.176L131.601 342.177L131.612 342.179L131.9 340.2ZM113.2 338.7L113.353 340.694L113.429 340.688L113.504 340.677L113.2 338.7ZM109.8 339L107.834 338.634L107.348 341.243L109.99 340.991L109.8 339ZM122.1 273V271H120.438L120.134 272.634L122.1 273ZM165.2 273H167.2V271H165.2V273ZM162.2 282.3L160.741 280.932L160.729 280.944L160.718 280.957L162.2 282.3ZM141.8 282.8L142.632 280.981L140.282 279.906L139.831 282.451L141.8 282.8ZM138.7 300.3L136.731 299.951L136.315 302.3H138.7V300.3ZM156.5 300.3H158.5V298.3H156.5V300.3ZM153.9 308.6L155.389 309.935L155.4 309.923L155.411 309.91L153.9 308.6ZM139.9 310.5L140.595 308.625H140.595L139.9 310.5ZM136.9 309.2L138.314 307.786L135.642 305.114L134.935 308.826L136.9 309.2ZM133.3 328.1L131.335 327.726L130.936 329.82L133.052 330.085L133.3 328.1ZM153.4 323.6L151.832 324.841C152.75 326.001 153.3 327.625 153.3 329.9H155.3H157.3C157.3 326.975 156.583 324.399 154.968 322.359L153.4 323.6ZM155.3 329.9H153.3C153.3 332.928 152.22 335.063 150.126 336.581L151.3 338.2L152.474 339.819C155.713 337.471 157.3 334.072 157.3 329.9H155.3ZM151.3 338.2L150.153 336.562C147.908 338.133 144.908 339 141 339V341V343C145.492 343 149.358 342 152.447 339.838L151.3 338.2ZM141 341V339C138.733 339 135.805 338.747 132.188 338.221L131.9 340.2L131.612 342.179C135.329 342.72 138.467 343 141 343V341ZM131.9 340.2L132.211 338.224C125.049 337.097 120.186 336.5 117.8 336.5V338.5V340.5C119.814 340.5 124.351 341.036 131.589 342.176L131.9 340.2ZM117.8 338.5V336.5C115.605 336.5 113.931 336.564 112.896 336.723L113.2 338.7L113.504 340.677C114.202 340.569 115.595 340.5 117.8 340.5V338.5ZM113.2 338.7L113.047 336.706C112.163 336.774 111.016 336.875 109.61 337.009L109.8 339L109.99 340.991C111.384 340.858 112.504 340.759 113.353 340.694L113.2 338.7ZM109.8 339L111.766 339.366L124.066 273.366L122.1 273L120.134 272.634L107.834 338.634L109.8 339ZM122.1 273V275H165.2V273V271H122.1V273ZM165.2 273H163.2C163.2 276.759 162.277 279.293 160.741 280.932L162.2 282.3L163.659 283.668C166.123 281.04 167.2 277.375 167.2 273H165.2ZM162.2 282.3L160.718 280.957C159.281 282.542 157.005 283.5 153.5 283.5V285.5V287.5C157.729 287.5 161.252 286.324 163.682 283.643L162.2 282.3ZM153.5 285.5V283.5C149.953 283.5 146.336 282.676 142.632 280.981L141.8 282.8L140.968 284.619C145.131 286.524 149.314 287.5 153.5 287.5V285.5ZM141.8 282.8L139.831 282.451L136.731 299.951L138.7 300.3L140.669 300.649L143.769 283.149L141.8 282.8ZM138.7 300.3V302.3H156.5V300.3V298.3H138.7V300.3ZM156.5 300.3H154.5C154.5 303.515 153.714 305.76 152.389 307.29L153.9 308.6L155.411 309.91C157.552 307.44 158.5 304.151 158.5 300.3H156.5ZM153.9 308.6L152.411 307.265C151.108 308.718 149.347 309.5 146.9 309.5V311.5V313.5C150.32 313.5 153.225 312.349 155.389 309.935L153.9 308.6ZM146.9 311.5V309.5C144.165 309.5 142.091 309.179 140.595 308.625L139.9 310.5L139.205 312.375C141.309 313.155 143.902 313.5 146.9 313.5V311.5ZM139.9 310.5L140.595 308.625C139.707 308.296 139.046 308.035 138.595 307.84C138.368 307.741 138.22 307.67 138.134 307.625C138.091 307.602 138.083 307.596 138.098 307.606C138.098 307.606 138.194 307.666 138.314 307.786L136.9 309.2L135.486 310.614C135.771 310.9 136.118 311.084 136.266 311.163C136.48 311.275 136.732 311.392 137.005 311.51C137.554 311.748 138.293 312.037 139.205 312.375L139.9 310.5ZM136.9 309.2L134.935 308.826L131.335 327.726L133.3 328.1L135.265 328.474L138.865 309.574L136.9 309.2ZM133.3 328.1L133.052 330.085C134.776 330.3 137.175 330.4 140.2 330.4V328.4V326.4C137.225 326.4 135.024 326.3 133.548 326.115L133.3 328.1ZM140.2 328.4V330.4C145.788 330.4 150.663 328.643 154.715 325.107L153.4 323.6L152.085 322.093C148.804 324.957 144.879 326.4 140.2 326.4V328.4ZM167.409 315.3L169.37 315.692L169.371 315.684L169.373 315.676L167.409 315.3ZM175.509 273V271H173.855L173.544 272.624L175.509 273ZM197.609 273L199.574 273.369L200.019 271H197.609V273ZM189.609 315.6L191.573 315.976L191.574 315.969L189.609 315.6ZM190.109 329L188.53 330.228L188.551 330.254L188.572 330.28L190.109 329ZM198.709 330.1L199.47 331.949V331.949L198.709 330.1ZM201.809 327.7L203.352 328.971L203.364 328.958L203.375 328.944L201.809 327.7ZM206.209 315.6L208.171 315.984L208.173 315.974L206.209 315.6ZM214.309 273V271H212.653L212.344 272.626L214.309 273ZM229.409 273L231.374 273.37L231.82 271H229.409V273ZM221.409 315.5L223.371 315.887L223.372 315.878L223.374 315.87L221.409 315.5ZM210.909 335.4L209.719 333.793L209.712 333.797L210.909 335.4ZM171.609 336.2L172.871 334.649L172.865 334.644L171.609 336.2ZM166.409 324.2H168.409C168.409 321.765 168.722 318.933 169.37 315.692L167.409 315.3L165.447 314.908C164.762 318.333 164.409 321.435 164.409 324.2H166.409ZM167.409 315.3L169.373 315.676L177.473 273.376L175.509 273L173.544 272.624L165.444 314.924L167.409 315.3ZM175.509 273V275H197.609V273V271H175.509V273ZM197.609 273L195.643 272.631L187.643 315.231L189.609 315.6L191.574 315.969L199.574 273.369L197.609 273ZM189.609 315.6L187.644 315.224C187.029 318.439 186.709 321.304 186.709 323.8H188.709H190.709C190.709 321.629 190.989 319.027 191.573 315.976L189.609 315.6ZM188.709 323.8H186.709C186.709 326.302 187.218 328.541 188.53 330.228L190.109 329L191.687 327.772C191.132 327.059 190.709 325.831 190.709 323.8H188.709ZM190.109 329L188.572 330.28C190.012 332.009 192.016 332.8 194.309 332.8V330.8V328.8C193.001 328.8 192.205 328.391 191.645 327.72L190.109 329ZM194.309 330.8V332.8C196.258 332.8 198.01 332.551 199.47 331.949L198.709 330.1L197.947 328.251C197.141 328.583 195.959 328.8 194.309 328.8V330.8ZM198.709 330.1L199.47 331.949C200.963 331.335 202.251 330.309 203.352 328.971L201.809 327.7L200.265 326.429C199.499 327.358 198.721 327.932 197.947 328.251L198.709 330.1ZM201.809 327.7L203.375 328.944C205.492 326.278 207.028 321.836 208.171 315.984L206.209 315.6L204.246 315.216C203.123 320.964 201.725 324.589 200.242 326.456L201.809 327.7ZM206.209 315.6L208.173 315.974L216.273 273.374L214.309 273L212.344 272.626L204.244 315.226L206.209 315.6ZM214.309 273V275H229.409V273V271H214.309V273ZM229.409 273L227.443 272.63L219.443 315.13L221.409 315.5L223.374 315.87L231.374 273.37L229.409 273ZM221.409 315.5L219.446 315.113C217.628 324.334 214.289 330.409 209.719 333.793L210.909 335.4L212.099 337.007C217.795 332.791 221.456 325.6 223.371 315.887L221.409 315.5ZM210.909 335.4L209.712 333.797C205.207 337.161 198.277 339 188.609 339V341V343C198.673 343 206.611 341.105 212.105 337.003L210.909 335.4ZM188.609 341V339C181.463 339 176.316 337.451 172.871 334.649L171.609 336.2L170.346 337.751C174.768 341.349 180.954 343 188.609 343V341ZM171.609 336.2L172.865 334.644C169.95 332.289 168.409 328.909 168.409 324.2H166.409H164.409C164.409 329.891 166.334 334.511 170.352 337.756L171.609 336.2ZM288.903 304.8L287.538 303.339L287.532 303.344L287.526 303.35L288.903 304.8ZM263.703 307.7L264.89 306.09L264.852 306.062L264.813 306.036L263.703 307.7ZM260.703 304.9V302.9H256.703L259.103 306.1L260.703 304.9ZM271.803 300.5L270.292 299.19L270.289 299.193L271.803 300.5ZM263.603 278.7L263.211 276.739L261.891 277.003L261.639 278.325L263.603 278.7ZM252.103 339V341H253.758L254.068 339.375L252.103 339ZM230.403 339L228.437 338.631L227.993 341H230.403V339ZM242.703 273.5L242.517 271.509L241.016 271.649L240.737 273.131L242.703 273.5ZM259.603 272.4L259.635 274.4V274.4L259.603 272.4ZM270.503 272.3V274.3C278.495 274.3 284.132 275.722 287.725 278.259C291.19 280.706 293.003 284.368 293.003 289.6H295.003H297.003C297.003 283.298 294.733 278.311 290.032 274.991C285.458 271.761 278.844 270.3 270.503 270.3V272.3ZM295.003 289.6H293.003C293.003 295.463 291.142 299.971 287.538 303.339L288.903 304.8L290.269 306.261C294.798 302.029 297.003 296.403 297.003 289.6H295.003ZM288.903 304.8L287.526 303.35C283.99 306.709 279.034 308.5 272.403 308.5V310.5V312.5C279.772 312.5 285.816 310.491 290.281 306.25L288.903 304.8ZM272.403 310.5V308.5C269.546 308.5 267.065 307.693 264.89 306.09L263.703 307.7L262.517 309.31C265.408 311.44 268.727 312.5 272.403 312.5V310.5ZM263.703 307.7L264.813 306.036C263.786 305.351 262.956 304.571 262.303 303.7L260.703 304.9L259.103 306.1C260.05 307.362 261.22 308.449 262.594 309.364L263.703 307.7ZM260.703 304.9V306.9C265.991 306.9 270.31 305.289 273.317 301.807L271.803 300.5L270.289 299.193C268.23 301.578 265.149 302.9 260.703 302.9V304.9ZM271.803 300.5L273.315 301.81C276.347 298.31 277.703 293.364 277.703 287.3H275.703H273.703C273.703 292.836 272.459 296.69 270.292 299.19L271.803 300.5ZM275.703 287.3H277.703C277.703 284.097 276.911 281.327 274.975 279.369C273.036 277.407 270.284 276.6 267.103 276.6V278.6V280.6C269.656 280.6 271.204 281.243 272.131 282.181C273.062 283.123 273.703 284.703 273.703 287.3H275.703ZM267.103 278.6V276.6H264.703V278.6V280.6H267.103V278.6ZM264.703 278.6V276.6C264.194 276.6 263.694 276.642 263.211 276.739L263.603 278.7L263.995 280.661C264.179 280.624 264.412 280.6 264.703 280.6V278.6ZM263.603 278.7L261.639 278.325L250.139 338.625L252.103 339L254.068 339.375L265.568 279.075L263.603 278.7ZM252.103 339V337H230.403V339V341H252.103V339ZM230.403 339L232.369 339.369L244.669 273.869L242.703 273.5L240.737 273.131L228.437 338.631L230.403 339ZM242.703 273.5L242.889 275.491C250.003 274.827 255.577 274.465 259.635 274.4L259.603 272.4L259.571 270.4C255.362 270.468 249.67 270.84 242.517 271.509L242.703 273.5ZM259.603 272.4L259.635 274.4C263.761 274.333 267.383 274.3 270.503 274.3V272.3V270.3C267.356 270.3 263.712 270.333 259.571 270.4L259.603 272.4ZM335.566 310.5L337.527 310.892L338.005 308.5H335.566V310.5ZM320.766 310.5V308.5H319.115L318.802 310.121L320.766 310.5ZM315.266 339V341H316.917L317.229 339.379L315.266 339ZM294.366 339L292.402 338.622L291.944 341H294.366V339ZM307.066 273V271H305.414L305.102 272.622L307.066 273ZM328.166 273L330.128 273.386L330.597 271H328.166V273ZM322.366 302.5L320.403 302.114L319.934 304.5H322.366V302.5ZM337.166 302.5V304.5H338.827L339.132 302.867L337.166 302.5ZM342.666 273V271H341.004L340.7 272.633L342.666 273ZM363.766 273L365.731 273.372L366.18 271H363.766V273ZM360.566 288.7L358.611 288.276L358.609 288.284L358.608 288.292L360.566 288.7ZM357.166 305L355.208 304.592L355.206 304.6L355.204 304.608L357.166 305ZM354.466 337.6L355.59 339.254L357.129 338.208L356.196 336.598L354.466 337.6ZM332.766 331.5H334.766C334.766 327.04 335.665 320.201 337.527 310.892L335.566 310.5L333.604 310.108C331.733 319.466 330.766 326.626 330.766 331.5H332.766ZM335.566 310.5V308.5H320.766V310.5V312.5H335.566V310.5ZM320.766 310.5L318.802 310.121L313.302 338.621L315.266 339L317.229 339.379L322.729 310.879L320.766 310.5ZM315.266 339V337H294.366V339V341H315.266V339ZM294.366 339L296.33 339.378L309.03 273.378L307.066 273L305.102 272.622L292.402 338.622L294.366 339ZM307.066 273V275H328.166V273V271H307.066V273ZM328.166 273L326.203 272.614L320.403 302.114L322.366 302.5L324.328 302.886L330.128 273.386L328.166 273ZM322.366 302.5V304.5H337.166V302.5V300.5H322.366V302.5ZM337.166 302.5L339.132 302.867L344.632 273.367L342.666 273L340.7 272.633L335.2 302.133L337.166 302.5ZM342.666 273V275H363.766V273V271H342.666V273ZM363.766 273L361.8 272.628C360.871 277.542 359.808 282.758 358.611 288.276L360.566 288.7L362.52 289.124C363.723 283.575 364.794 278.325 365.731 273.372L363.766 273ZM360.566 288.7L358.608 288.292L355.208 304.592L357.166 305L359.123 305.408L362.523 289.108L360.566 288.7ZM357.166 305L355.204 304.608C352.67 317.279 351.366 326.55 351.366 332.3H353.366H355.366C355.366 326.983 356.594 318.055 359.127 305.392L357.166 305ZM353.366 332.3H351.366C351.366 334.742 351.754 336.908 352.735 338.602L354.466 337.6L356.196 336.598C355.711 335.759 355.366 334.391 355.366 332.3H353.366ZM354.466 337.6L353.341 335.946C350.331 337.993 347.087 339 343.566 339V341V343C347.911 343 351.934 341.74 355.59 339.254L354.466 337.6ZM343.566 341V339C339.96 339 337.879 338.124 336.758 336.868L335.266 338.2L333.774 339.532C335.986 342.01 339.438 343 343.566 343V341ZM335.266 338.2L336.758 336.868C335.432 335.383 334.766 333.63 334.766 331.5H332.766H330.766C330.766 334.57 331.766 337.283 333.774 339.532L335.266 338.2ZM377.469 283.8L379.013 285.071L379.019 285.063L379.026 285.055L377.469 283.8ZM425.669 277.3L424.276 278.736L424.282 278.741L424.288 278.747L425.669 277.3ZM421.869 329.3L423.37 330.622L423.375 330.616L421.869 329.3ZM374.169 334.3L372.723 335.682L372.733 335.693L372.744 335.704L374.169 334.3ZM393.969 293.9L392.031 293.406L392.028 293.415L393.969 293.9ZM390.569 331.7L388.78 332.594L388.796 332.626L388.813 332.658L390.569 331.7ZM399.769 332.5L400.955 334.11L400.982 334.09L401.008 334.07L399.769 332.5ZM403.169 327.7L404.99 328.528L404.993 328.52L404.996 328.512L403.169 327.7ZM407.769 310.9L405.808 310.508L405.805 310.521L407.769 310.9ZM410.269 294.7L412.267 294.785L412.267 294.783L410.269 294.7ZM409.369 280.4L411.173 279.537V279.537L409.369 280.4ZM400.369 279.9L399.031 278.413L399.023 278.42L399.016 278.427L400.369 279.9ZM367.669 314.6H369.669C369.669 302.356 372.836 292.571 379.013 285.071L377.469 283.8L375.925 282.529C369.034 290.896 365.669 301.644 365.669 314.6H367.669ZM377.469 283.8L379.026 285.055C385.541 276.974 394.443 272.9 405.969 272.9V270.9V268.9C393.361 268.9 383.263 273.426 375.912 282.545L377.469 283.8ZM405.969 270.9V272.9C414.404 272.9 420.383 274.96 424.276 278.736L425.669 277.3L427.061 275.864C422.154 271.106 415 268.9 405.969 268.9V270.9ZM425.669 277.3L424.288 278.747C428.139 282.423 430.269 288.356 430.269 297H432.269H434.269C434.269 287.777 431.999 280.577 427.05 275.853L425.669 277.3ZM432.269 297H430.269C430.269 310.26 426.894 320.511 420.363 327.984L421.869 329.3L423.375 330.616C430.71 322.223 434.269 310.94 434.269 297H432.269ZM421.869 329.3L420.368 327.978C413.925 335.297 405.298 339 394.269 339V341V343C406.306 343 416.079 338.903 423.37 330.622L421.869 329.3ZM394.269 341V339C385.569 339 379.48 336.842 375.594 332.896L374.169 334.3L372.744 335.704C377.658 340.692 384.968 343 394.269 343V341ZM374.169 334.3L375.615 332.918C371.752 328.877 369.669 322.879 369.669 314.6H367.669H365.669C365.669 323.521 367.919 330.656 372.723 335.682L374.169 334.3ZM393.969 293.9L392.028 293.415C389 305.528 387.469 316.429 387.469 326.1H389.469H391.469C391.469 316.838 392.937 306.272 395.909 294.385L393.969 293.9ZM389.469 326.1H387.469C387.469 328.565 387.865 330.765 388.78 332.594L390.569 331.7L392.358 330.806C391.806 329.702 391.469 328.168 391.469 326.1H389.469ZM390.569 331.7L388.813 332.658C390.039 334.905 392.209 335.9 394.769 335.9V333.9V331.9C393.328 331.9 392.699 331.428 392.325 330.742L390.569 331.7ZM394.769 333.9V335.9C397.129 335.9 399.251 335.366 400.955 334.11L399.769 332.5L398.582 330.89C397.753 331.501 396.542 331.9 394.769 331.9V333.9ZM399.769 332.5L401.008 334.07C402.618 332.798 403.918 330.885 404.99 328.528L403.169 327.7L401.348 326.872C400.42 328.915 399.452 330.202 398.529 330.93L399.769 332.5ZM403.169 327.7L404.996 328.512C406.692 324.697 408.259 318.914 409.733 311.279L407.769 310.9L405.805 310.521C404.345 318.086 402.846 323.503 401.341 326.888L403.169 327.7ZM407.769 310.9L409.73 311.292C411.262 303.63 412.126 298.091 412.267 294.785L410.269 294.7L408.271 294.615C408.145 297.575 407.342 302.837 405.808 310.508L407.769 310.9ZM410.269 294.7L412.267 294.783C412.401 291.564 412.469 288.735 412.469 286.3H410.469H408.469C408.469 288.665 408.403 291.436 408.27 294.617L410.269 294.7ZM410.469 286.3H412.469C412.469 283.716 412.077 281.427 411.173 279.537L409.369 280.4L407.564 281.263C408.127 282.439 408.469 284.084 408.469 286.3H410.469ZM409.369 280.4L411.173 279.537C410.644 278.432 409.846 277.533 408.772 276.931C407.718 276.34 406.519 276.1 405.269 276.1V278.1V280.1C406.019 280.1 406.502 280.244 406.815 280.419C407.108 280.584 407.36 280.835 407.564 281.263L409.369 280.4ZM405.269 278.1V276.1C402.883 276.1 400.761 276.856 399.031 278.413L400.369 279.9L401.707 281.387C402.643 280.544 403.788 280.1 405.269 280.1V278.1ZM400.369 279.9L399.016 278.427C396.08 281.125 393.837 286.313 392.031 293.406L393.969 293.9L395.907 294.394C397.7 287.353 399.724 283.209 401.722 281.373L400.369 279.9ZM436.265 339L434.298 338.635L433.859 341H436.265V339ZM448.465 273.3L448.244 271.312L446.769 271.476L446.498 272.935L448.465 273.3ZM493.965 276.4L495.027 274.705V274.705L493.965 276.4ZM496.265 302.8L494.726 301.522L494.719 301.531L494.712 301.54L496.265 302.8ZM484.465 309.8L484.023 307.849L482.112 308.282L482.506 310.201L484.465 309.8ZM490.065 324.8L491.801 323.808L491.797 323.801L491.793 323.794L490.065 324.8ZM497.865 333.1L499.748 333.773L500.356 332.071L498.725 331.294L497.865 333.1ZM493.265 339.1L492.261 337.37L492.227 337.39L492.195 337.41L493.265 339.1ZM478.165 338.5L476.95 340.089L476.965 340.1L476.98 340.111L478.165 338.5ZM472.065 331.2L470.319 332.176L470.325 332.186L470.331 332.196L472.065 331.2ZM465.765 304.9V302.9H463.689L463.766 304.974L465.765 304.9ZM466.465 304.9V306.9H466.492L466.519 306.899L466.465 304.9ZM477.565 300.9L478.998 302.295L479.007 302.286L479.016 302.277L477.565 300.9ZM472.765 278.4L472.859 276.402L472.812 276.4H472.765V278.4ZM469.165 278.5L468.773 276.539L467.452 276.803L467.2 278.127L469.165 278.5ZM457.665 339V341H459.32L459.63 339.373L457.665 339ZM436.265 339L438.231 339.365L450.431 273.665L448.465 273.3L446.498 272.935L434.298 338.635L436.265 339ZM448.465 273.3L448.686 275.288C455.188 274.565 463.209 274.2 472.765 274.2V272.2V270.2C463.12 270.2 454.942 270.568 448.244 271.312L448.465 273.3ZM472.765 272.2V274.2C482.324 274.2 488.923 275.6 492.903 278.095L493.965 276.4L495.027 274.705C490.073 271.6 482.539 270.2 472.765 270.2V272.2ZM493.965 276.4L492.903 278.095C496.735 280.497 498.665 284.06 498.665 289.1H500.665H502.665C502.665 282.807 500.128 277.903 495.027 274.705L493.965 276.4ZM500.665 289.1H498.665C498.665 294.34 497.3 298.422 494.726 301.522L496.265 302.8L497.804 304.078C501.096 300.111 502.665 295.06 502.665 289.1H500.665ZM496.265 302.8L494.712 301.54C492.163 304.681 488.644 306.802 484.023 307.849L484.465 309.8L484.907 311.751C490.286 310.531 494.633 307.985 497.818 304.06L496.265 302.8ZM484.465 309.8L482.506 310.201C483.678 315.928 485.617 321.135 488.336 325.806L490.065 324.8L491.793 323.794C489.312 319.532 487.518 314.739 486.424 309.399L484.465 309.8ZM490.065 324.8L488.328 325.792C490.826 330.163 493.683 333.324 497.005 334.906L497.865 333.1L498.725 331.294C496.447 330.209 494.104 327.837 491.801 323.808L490.065 324.8ZM497.865 333.1L495.981 332.427C495.1 334.894 493.826 336.461 492.261 337.37L493.265 339.1L494.269 340.83C496.837 339.339 498.629 336.906 499.748 333.773L497.865 333.1ZM493.265 339.1L492.195 337.41C490.584 338.431 488.51 339 485.865 339V341V343C489.087 343 491.946 342.303 494.335 340.79L493.265 339.1ZM485.865 341V339C483.416 339 481.266 338.298 479.35 336.889L478.165 338.5L476.98 340.111C479.597 342.036 482.581 343 485.865 343V341ZM478.165 338.5L479.38 336.911C477.372 335.376 475.501 333.166 473.799 330.204L472.065 331.2L470.331 332.196C472.229 335.501 474.425 338.158 476.95 340.089L478.165 338.5ZM472.065 331.2L473.811 330.224C470.212 323.785 468.156 315.356 467.763 304.826L465.765 304.9L463.766 304.974C464.174 315.911 466.317 325.015 470.319 332.176L472.065 331.2ZM465.765 304.9V306.9H466.465V304.9V302.9H465.765V304.9ZM466.465 304.9L466.519 306.899C471.764 306.757 476.044 305.328 478.998 302.295L477.565 300.9L476.132 299.505C474.152 301.538 471.032 302.776 466.411 302.901L466.465 304.9ZM477.565 300.9L479.016 302.277C481.978 299.154 483.265 294.558 483.265 288.9H481.265H479.265C479.265 294.042 478.085 297.446 476.114 299.523L477.565 300.9ZM481.265 288.9H483.265C483.265 285.293 482.512 282.212 480.694 279.967C478.829 277.663 476.103 276.555 472.859 276.402L472.765 278.4L472.671 280.398C475.093 280.512 476.617 281.287 477.585 282.483C478.601 283.738 479.265 285.773 479.265 288.9H481.265ZM472.765 278.4V276.4H470.565V278.4V280.4H472.765V278.4ZM470.565 278.4V276.4C469.917 276.4 469.297 276.434 468.773 276.539L469.165 278.5L469.557 280.461C469.699 280.433 470.013 280.4 470.565 280.4V278.4ZM469.165 278.5L467.2 278.127L455.7 338.627L457.665 339L459.63 339.373L471.13 278.873L469.165 278.5ZM457.665 339V337H436.265V339V341H457.665V339ZM504.131 339L502.167 338.622L501.71 341H504.131V339ZM516.831 273V271H515.179L514.867 272.622L516.831 273ZM538.831 273L540.794 273.384L541.26 271H538.831V273ZM525.931 339V341H527.578L527.894 339.384L525.931 339ZM504.131 339L506.095 339.378L518.795 273.378L516.831 273L514.867 272.622L502.167 338.622L504.131 339ZM516.831 273V275H538.831V273V271H516.831V273ZM538.831 273L536.868 272.616L523.968 338.616L525.931 339L527.894 339.384L540.794 273.384L538.831 273ZM525.931 339V337H504.131V339V341H525.931V339ZM593.271 318.3L594.451 316.685L592.914 315.562L591.717 317.042L593.271 318.3ZM594.071 331.2L592.372 330.145L592.367 330.154L592.362 330.162L594.071 331.2ZM588.971 336.2L590.054 337.882L590.058 337.879L588.971 336.2ZM549.171 334.3L547.778 335.735L547.788 335.745L547.799 335.755L549.171 334.3ZM550.971 286.4L549.334 285.251L549.328 285.26L549.321 285.27L550.971 286.4ZM569.371 273L568.748 271.1L568.738 271.103L568.729 271.106L569.371 273ZM591.171 271.8L591.594 269.845V269.845L591.171 271.8ZM597.671 274.2L598.666 272.465L598.663 272.464L597.671 274.2ZM598.971 292.2L600.194 293.783L600.203 293.775L600.212 293.768L598.971 292.2ZM585.871 295.1L583.883 294.879L583.705 296.486L585.239 296.997L585.871 295.1ZM586.171 285.1L588.168 284.983V284.983L586.171 285.1ZM585.571 281.8L583.64 282.322L583.651 282.359L583.662 282.397L585.571 281.8ZM575.371 281L576.736 282.462L576.737 282.461L575.371 281ZM569.771 288.6L568.013 287.647L568.012 287.648L569.771 288.6ZM567.371 322.2L565.937 323.594L565.947 323.604L565.957 323.614L567.371 322.2ZM589.271 322L588.129 320.358L588.126 320.36L589.271 322ZM593.271 318.3L592.091 319.915C593.171 320.704 593.871 322.012 593.871 324.3H595.871H597.871C597.871 321.122 596.838 318.43 594.451 316.685L593.271 318.3ZM595.871 324.3H593.871C593.871 326.659 593.344 328.58 592.372 330.145L594.071 331.2L595.77 332.255C597.199 329.954 597.871 327.274 597.871 324.3H595.871ZM594.071 331.2L592.362 330.162C591.417 331.717 589.956 333.18 587.885 334.521L588.971 336.2L590.058 337.879C592.519 336.286 594.458 334.416 595.781 332.238L594.071 331.2ZM588.971 336.2L587.888 334.518C583.464 337.367 577.192 338.9 568.871 338.9V340.9V342.9C577.617 342.9 584.745 341.299 590.054 337.882L588.971 336.2ZM568.871 340.9V338.9C560.747 338.9 554.732 336.795 550.543 332.845L549.171 334.3L547.799 335.755C552.943 340.605 560.062 342.9 568.871 342.9V340.9ZM549.171 334.3L550.564 332.865C546.437 328.857 544.271 323.257 544.271 315.8H542.271H540.271C540.271 324.076 542.705 330.809 547.778 335.735L549.171 334.3ZM542.271 315.8H544.271C544.271 305.034 547.069 295.636 552.621 287.53L550.971 286.4L549.321 285.27C543.274 294.098 540.271 304.299 540.271 315.8H542.271ZM550.971 286.4L552.608 287.549C556.743 281.66 562.513 277.437 570.013 274.894L569.371 273L568.729 271.106C560.496 273.897 553.999 278.607 549.334 285.251L550.971 286.4ZM569.371 273L569.994 274.9C573.874 273.628 577.697 273 581.471 273V271V269C577.245 269 573.002 269.705 568.748 271.1L569.371 273ZM581.471 271V273C585.401 273 588.477 273.264 590.748 273.755L591.171 271.8L591.594 269.845C588.932 269.27 585.541 269 581.471 269V271ZM591.171 271.8L590.748 273.755C593.049 274.252 595.017 274.987 596.679 275.936L597.671 274.2L598.663 272.464C596.591 271.28 594.227 270.414 591.594 269.845L591.171 271.8ZM597.671 274.2L596.676 275.935C600.306 278.018 601.771 280.474 601.771 283.3H603.771H605.771C605.771 278.66 603.169 275.049 598.666 272.465L597.671 274.2ZM603.771 283.3H601.771C601.771 285.964 600.557 288.393 597.73 290.632L598.971 292.2L600.212 293.768C603.785 290.94 605.771 287.436 605.771 283.3H603.771ZM598.971 292.2L597.748 290.617C594.985 292.752 592.745 293.6 590.971 293.6V295.6V297.6C593.997 297.6 597.09 296.181 600.194 293.783L598.971 292.2ZM590.971 295.6V293.6C588.582 293.6 587.169 293.425 586.504 293.203L585.871 295.1L585.239 296.997C586.573 297.442 588.56 297.6 590.971 297.6V295.6ZM585.871 295.1L587.859 295.321C588.13 292.884 588.271 290.836 588.271 289.2H586.271H584.271C584.271 290.63 584.146 292.516 583.883 294.879L585.871 295.1ZM586.271 289.2H588.271C588.271 287.575 588.237 286.167 588.168 284.983L586.171 285.1L584.175 285.217C584.238 286.3 584.271 287.625 584.271 289.2H586.271ZM586.171 285.1L588.168 284.983C588.092 283.689 587.863 282.428 587.48 281.203L585.571 281.8L583.662 282.397C583.946 283.305 584.117 284.244 584.175 285.217L586.171 285.1ZM585.571 281.8L587.502 281.278C587.106 279.812 586.445 278.496 585.386 277.54C584.289 276.551 582.934 276.1 581.471 276.1V278.1V280.1C582.075 280.1 582.436 280.266 582.706 280.51C583.014 280.787 583.37 281.321 583.64 282.322L585.571 281.8ZM581.471 278.1V276.1C578.786 276.1 576.288 277.403 574.005 279.539L575.371 281L576.737 282.461C578.587 280.73 580.156 280.1 581.471 280.1V278.1ZM575.371 281L574.006 279.538C571.806 281.592 569.817 284.316 568.013 287.647L569.771 288.6L571.53 289.553C573.192 286.484 574.936 284.142 576.736 282.462L575.371 281ZM569.771 288.6L568.012 287.648C563.914 295.219 561.871 303.482 561.871 312.4H563.871H565.871C565.871 304.118 567.761 296.514 571.53 289.552L569.771 288.6ZM563.871 312.4H561.871C561.871 316.925 563.16 320.738 565.937 323.594L567.371 322.2L568.805 320.806C566.916 318.862 565.871 316.142 565.871 312.4H563.871ZM567.371 322.2L565.957 323.614C568.82 326.478 573.11 327.7 578.371 327.7V325.7V323.7C573.633 323.7 570.589 322.589 568.785 320.786L567.371 322.2ZM578.371 325.7V327.7C582.575 327.7 586.6 326.304 590.416 323.64L589.271 322L588.126 320.36C584.875 322.63 581.634 323.7 578.371 323.7V325.7ZM589.271 322L590.413 323.642C592.096 322.471 593.569 321.11 594.826 319.558L593.271 318.3L591.717 317.042C590.706 318.29 589.513 319.395 588.129 320.358L589.271 322Z" fill="#983F5D"/>
<path opacity="0.8" d="M151.4 319.6C152.667 321.2 153.3 323.3 153.3 325.9C153.3 329.5 151.967 332.267 149.3 334.2C146.633 336.067 143.2 337 139 337C136.6 337 133.567 336.733 129.9 336.2C122.7 335.067 118 334.5 115.8 334.5C113.6 334.5 112.067 334.567 111.2 334.7C110.333 334.767 109.2 334.867 107.8 335L120.1 269H163.2C163.2 273.067 162.2 276.167 160.2 278.3C158.267 280.433 155.367 281.5 151.5 281.5C147.633 281.5 143.733 280.6 139.8 278.8L136.7 296.3H154.5C154.5 299.833 153.633 302.6 151.9 304.6C150.167 306.533 147.833 307.5 144.9 307.5C142.033 307.5 139.7 307.167 137.9 306.5C136.1 305.833 135.1 305.4 134.9 305.2L131.3 324.1C132.9 324.3 135.2 324.4 138.2 324.4C143.333 324.4 147.733 322.8 151.4 319.6ZM164.409 320.2C164.409 317.6 164.742 314.633 165.409 311.3L173.509 269H195.609L187.609 311.6C187.009 314.733 186.709 317.467 186.709 319.8C186.709 322.067 187.175 323.8 188.109 325C189.109 326.2 190.509 326.8 192.309 326.8C194.109 326.8 195.575 326.567 196.709 326.1C197.842 325.633 198.875 324.833 199.809 323.7C201.609 321.433 203.075 317.4 204.209 311.6L212.309 269H227.409L219.409 311.5C217.542 320.967 214.042 327.6 208.909 331.4C203.909 335.133 196.475 337 186.609 337C179.209 337 173.542 335.4 169.609 332.2C166.142 329.4 164.409 325.4 164.409 320.2ZM268.503 268.3C284.836 268.3 293.003 274.067 293.003 285.6C293.003 291.933 290.97 297 286.903 300.8C282.903 304.6 277.403 306.5 270.403 306.5C267.136 306.5 264.236 305.567 261.703 303.7C260.503 302.9 259.503 301.967 258.703 300.9C263.57 300.9 267.27 299.433 269.803 296.5C272.403 293.5 273.703 289.1 273.703 283.3C273.703 277.5 270.836 274.6 265.103 274.6H262.703C262.303 274.6 261.936 274.633 261.603 274.7L250.103 335H228.403L240.703 269.5C247.836 268.833 253.47 268.467 257.603 268.4C261.736 268.333 265.37 268.3 268.503 268.3ZM330.766 327.5C330.766 322.833 331.699 315.833 333.566 306.5H318.766L313.266 335H292.366L305.066 269H326.166L320.366 298.5H335.166L340.666 269H361.766C360.832 273.933 359.766 279.167 358.566 284.7L355.166 301C352.632 313.667 351.366 322.767 351.366 328.3C351.366 330.567 351.732 332.333 352.466 333.6C349.132 335.867 345.499 337 341.566 337C337.699 337 334.932 336.067 333.266 334.2C331.599 332.333 330.766 330.1 330.766 327.5ZM365.669 310.6C365.669 298 368.935 287.733 375.469 279.8C382.402 271.2 391.902 266.9 403.969 266.9C412.702 266.9 419.269 269.033 423.669 273.3C428.069 277.5 430.269 284.067 430.269 293C430.269 306.6 426.802 317.367 419.869 325.3C413.002 333.1 403.802 337 392.269 337C383.269 337 376.569 334.767 372.169 330.3C367.835 325.767 365.669 319.2 365.669 310.6ZM391.969 289.9C388.969 301.9 387.469 312.633 387.469 322.1C387.469 324.367 387.835 326.233 388.569 327.7C389.369 329.167 390.769 329.9 392.769 329.9C394.835 329.9 396.502 329.433 397.769 328.5C399.035 327.5 400.169 325.9 401.169 323.7C402.769 320.1 404.302 314.5 405.769 306.9C407.302 299.233 408.135 293.833 408.269 290.7C408.402 287.5 408.469 284.7 408.469 282.3C408.469 279.9 408.102 277.933 407.369 276.4C406.635 274.867 405.269 274.1 403.269 274.1C401.335 274.1 399.702 274.7 398.369 275.9C395.902 278.167 393.769 282.833 391.969 289.9ZM434.265 335L446.465 269.3C453.065 268.567 461.165 268.2 470.765 268.2C480.432 268.2 487.498 269.6 491.965 272.4C496.432 275.2 498.665 279.433 498.665 285.1C498.665 290.7 497.198 295.267 494.265 298.8C491.398 302.333 487.465 304.667 482.465 305.8C483.598 311.333 485.465 316.333 488.065 320.8C490.465 325 493.065 327.767 495.865 329.1C494.865 331.9 493.332 333.9 491.265 335.1C489.265 336.367 486.798 337 483.865 337C480.998 337 478.432 336.167 476.165 334.5C473.898 332.767 471.865 330.333 470.065 327.2C466.265 320.4 464.165 311.633 463.765 300.9H464.465C469.398 300.767 473.098 299.433 475.565 296.9C478.032 294.3 479.265 290.3 479.265 284.9C479.265 278.167 476.432 274.667 470.765 274.4H468.565C467.965 274.4 467.498 274.433 467.165 274.5L455.665 335H434.265ZM502.131 335L514.831 269H536.831L523.931 335H502.131ZM591.271 314.3C593.004 315.567 593.871 317.567 593.871 320.3C593.871 322.967 593.271 325.267 592.071 327.2C590.938 329.067 589.238 330.733 586.971 332.2C582.104 335.333 575.404 336.9 566.871 336.9C558.404 336.9 551.838 334.7 547.171 330.3C542.571 325.833 540.271 319.667 540.271 311.8C540.271 300.667 543.171 290.867 548.971 282.4C553.371 276.133 559.504 271.667 567.371 269C571.438 267.667 575.471 267 579.471 267C583.471 267 586.704 267.267 589.171 267.8C591.638 268.333 593.804 269.133 595.671 270.2C599.738 272.533 601.771 275.567 601.771 279.3C601.771 282.7 600.171 285.667 596.971 288.2C594.038 290.467 591.371 291.6 588.971 291.6C586.571 291.6 584.871 291.433 583.871 291.1C584.138 288.7 584.271 286.733 584.271 285.2C584.271 283.6 584.238 282.233 584.171 281.1C584.104 279.967 583.904 278.867 583.571 277.8C582.904 275.333 581.538 274.1 579.471 274.1C577.471 274.1 575.438 275.067 573.371 277C571.371 278.867 569.504 281.4 567.771 284.6C563.838 291.867 561.871 299.8 561.871 308.4C561.871 312.533 563.038 315.8 565.371 318.2C567.704 320.533 571.371 321.7 576.371 321.7C580.104 321.7 583.738 320.467 587.271 318C588.804 316.933 590.138 315.7 591.271 314.3Z" fill="#983F5D"/>
<path opacity="0.7" d="M147.4 315.6C148.667 317.2 149.3 319.3 149.3 321.9C149.3 325.5 147.967 328.267 145.3 330.2C142.633 332.067 139.2 333 135 333C132.6 333 129.567 332.733 125.9 332.2C118.7 331.067 114 330.5 111.8 330.5C109.6 330.5 108.067 330.567 107.2 330.7C106.333 330.767 105.2 330.867 103.8 331L116.1 265H159.2C159.2 269.067 158.2 272.167 156.2 274.3C154.267 276.433 151.367 277.5 147.5 277.5C143.633 277.5 139.733 276.6 135.8 274.8L132.7 292.3H150.5C150.5 295.833 149.633 298.6 147.9 300.6C146.167 302.533 143.833 303.5 140.9 303.5C138.033 303.5 135.7 303.167 133.9 302.5C132.1 301.833 131.1 301.4 130.9 301.2L127.3 320.1C128.9 320.3 131.2 320.4 134.2 320.4C139.333 320.4 143.733 318.8 147.4 315.6ZM160.409 316.2C160.409 313.6 160.742 310.633 161.409 307.3L169.509 265H191.609L183.609 307.6C183.009 310.733 182.709 313.467 182.709 315.8C182.709 318.067 183.175 319.8 184.109 321C185.109 322.2 186.509 322.8 188.309 322.8C190.109 322.8 191.575 322.567 192.709 322.1C193.842 321.633 194.875 320.833 195.809 319.7C197.609 317.433 199.075 313.4 200.209 307.6L208.309 265H223.409L215.409 307.5C213.542 316.967 210.042 323.6 204.909 327.4C199.909 331.133 192.475 333 182.609 333C175.209 333 169.542 331.4 165.609 328.2C162.142 325.4 160.409 321.4 160.409 316.2ZM264.503 264.3C280.836 264.3 289.003 270.067 289.003 281.6C289.003 287.933 286.97 293 282.903 296.8C278.903 300.6 273.403 302.5 266.403 302.5C263.136 302.5 260.236 301.567 257.703 299.7C256.503 298.9 255.503 297.967 254.703 296.9C259.57 296.9 263.27 295.433 265.803 292.5C268.403 289.5 269.703 285.1 269.703 279.3C269.703 273.5 266.836 270.6 261.103 270.6H258.703C258.303 270.6 257.936 270.633 257.603 270.7L246.103 331H224.403L236.703 265.5C243.836 264.833 249.47 264.467 253.603 264.4C257.736 264.333 261.37 264.3 264.503 264.3ZM326.766 323.5C326.766 318.833 327.699 311.833 329.566 302.5H314.766L309.266 331H288.366L301.066 265H322.166L316.366 294.5H331.166L336.666 265H357.766C356.832 269.933 355.766 275.167 354.566 280.7L351.166 297C348.632 309.667 347.366 318.767 347.366 324.3C347.366 326.567 347.732 328.333 348.466 329.6C345.132 331.867 341.499 333 337.566 333C333.699 333 330.932 332.067 329.266 330.2C327.599 328.333 326.766 326.1 326.766 323.5ZM361.669 306.6C361.669 294 364.935 283.733 371.469 275.8C378.402 267.2 387.902 262.9 399.969 262.9C408.702 262.9 415.269 265.033 419.669 269.3C424.069 273.5 426.269 280.067 426.269 289C426.269 302.6 422.802 313.367 415.869 321.3C409.002 329.1 399.802 333 388.269 333C379.269 333 372.569 330.767 368.169 326.3C363.835 321.767 361.669 315.2 361.669 306.6ZM387.969 285.9C384.969 297.9 383.469 308.633 383.469 318.1C383.469 320.367 383.835 322.233 384.569 323.7C385.369 325.167 386.769 325.9 388.769 325.9C390.835 325.9 392.502 325.433 393.769 324.5C395.035 323.5 396.169 321.9 397.169 319.7C398.769 316.1 400.302 310.5 401.769 302.9C403.302 295.233 404.135 289.833 404.269 286.7C404.402 283.5 404.469 280.7 404.469 278.3C404.469 275.9 404.102 273.933 403.369 272.4C402.635 270.867 401.269 270.1 399.269 270.1C397.335 270.1 395.702 270.7 394.369 271.9C391.902 274.167 389.769 278.833 387.969 285.9ZM430.265 331L442.465 265.3C449.065 264.567 457.165 264.2 466.765 264.2C476.432 264.2 483.498 265.6 487.965 268.4C492.432 271.2 494.665 275.433 494.665 281.1C494.665 286.7 493.198 291.267 490.265 294.8C487.398 298.333 483.465 300.667 478.465 301.8C479.598 307.333 481.465 312.333 484.065 316.8C486.465 321 489.065 323.767 491.865 325.1C490.865 327.9 489.332 329.9 487.265 331.1C485.265 332.367 482.798 333 479.865 333C476.998 333 474.432 332.167 472.165 330.5C469.898 328.767 467.865 326.333 466.065 323.2C462.265 316.4 460.165 307.633 459.765 296.9H460.465C465.398 296.767 469.098 295.433 471.565 292.9C474.032 290.3 475.265 286.3 475.265 280.9C475.265 274.167 472.432 270.667 466.765 270.4H464.565C463.965 270.4 463.498 270.433 463.165 270.5L451.665 331H430.265ZM498.131 331L510.831 265H532.831L519.931 331H498.131ZM587.271 310.3C589.004 311.567 589.871 313.567 589.871 316.3C589.871 318.967 589.271 321.267 588.071 323.2C586.938 325.067 585.238 326.733 582.971 328.2C578.104 331.333 571.404 332.9 562.871 332.9C554.404 332.9 547.838 330.7 543.171 326.3C538.571 321.833 536.271 315.667 536.271 307.8C536.271 296.667 539.171 286.867 544.971 278.4C549.371 272.133 555.504 267.667 563.371 265C567.438 263.667 571.471 263 575.471 263C579.471 263 582.704 263.267 585.171 263.8C587.638 264.333 589.804 265.133 591.671 266.2C595.738 268.533 597.771 271.567 597.771 275.3C597.771 278.7 596.171 281.667 592.971 284.2C590.038 286.467 587.371 287.6 584.971 287.6C582.571 287.6 580.871 287.433 579.871 287.1C580.138 284.7 580.271 282.733 580.271 281.2C580.271 279.6 580.238 278.233 580.171 277.1C580.104 275.967 579.904 274.867 579.571 273.8C578.904 271.333 577.538 270.1 575.471 270.1C573.471 270.1 571.438 271.067 569.371 273C567.371 274.867 565.504 277.4 563.771 280.6C559.838 287.867 557.871 295.8 557.871 304.4C557.871 308.533 559.038 311.8 561.371 314.2C563.704 316.533 567.371 317.7 572.371 317.7C576.104 317.7 579.738 316.467 583.271 314C584.804 312.933 586.138 311.7 587.271 310.3Z" fill="white"/>
<path d="M142.4 310.6C143.667 312.2 144.3 314.3 144.3 316.9C144.3 320.5 142.967 323.267 140.3 325.2C137.633 327.067 134.2 328 130 328C127.6 328 124.567 327.733 120.9 327.2C113.7 326.067 109 325.5 106.8 325.5C104.6 325.5 103.067 325.567 102.2 325.7C101.333 325.767 100.2 325.867 98.8 326L111.1 260H154.2C154.2 264.067 153.2 267.167 151.2 269.3C149.267 271.433 146.367 272.5 142.5 272.5C138.633 272.5 134.733 271.6 130.8 269.8L127.7 287.3H145.5C145.5 290.833 144.633 293.6 142.9 295.6C141.167 297.533 138.833 298.5 135.9 298.5C133.033 298.5 130.7 298.167 128.9 297.5C127.1 296.833 126.1 296.4 125.9 296.2L122.3 315.1C123.9 315.3 126.2 315.4 129.2 315.4C134.333 315.4 138.733 313.8 142.4 310.6ZM155.409 311.2C155.409 308.6 155.742 305.633 156.409 302.3L164.509 260H186.609L178.609 302.6C178.009 305.733 177.709 308.467 177.709 310.8C177.709 313.067 178.175 314.8 179.109 316C180.109 317.2 181.509 317.8 183.309 317.8C185.109 317.8 186.575 317.567 187.709 317.1C188.842 316.633 189.875 315.833 190.809 314.7C192.609 312.433 194.075 308.4 195.209 302.6L203.309 260H218.409L210.409 302.5C208.542 311.967 205.042 318.6 199.909 322.4C194.909 326.133 187.475 328 177.609 328C170.209 328 164.542 326.4 160.609 323.2C157.142 320.4 155.409 316.4 155.409 311.2ZM259.503 259.3C275.836 259.3 284.003 265.067 284.003 276.6C284.003 282.933 281.97 288 277.903 291.8C273.903 295.6 268.403 297.5 261.403 297.5C258.136 297.5 255.236 296.567 252.703 294.7C251.503 293.9 250.503 292.967 249.703 291.9C254.57 291.9 258.27 290.433 260.803 287.5C263.403 284.5 264.703 280.1 264.703 274.3C264.703 268.5 261.836 265.6 256.103 265.6H253.703C253.303 265.6 252.936 265.633 252.603 265.7L241.103 326H219.403L231.703 260.5C238.836 259.833 244.47 259.467 248.603 259.4C252.736 259.333 256.37 259.3 259.503 259.3ZM321.766 318.5C321.766 313.833 322.699 306.833 324.566 297.5H309.766L304.266 326H283.366L296.066 260H317.166L311.366 289.5H326.166L331.666 260H352.766C351.832 264.933 350.766 270.167 349.566 275.7L346.166 292C343.632 304.667 342.366 313.767 342.366 319.3C342.366 321.567 342.732 323.333 343.466 324.6C340.132 326.867 336.499 328 332.566 328C328.699 328 325.932 327.067 324.266 325.2C322.599 323.333 321.766 321.1 321.766 318.5ZM356.669 301.6C356.669 289 359.935 278.733 366.469 270.8C373.402 262.2 382.902 257.9 394.969 257.9C403.702 257.9 410.269 260.033 414.669 264.3C419.069 268.5 421.269 275.067 421.269 284C421.269 297.6 417.802 308.367 410.869 316.3C404.002 324.1 394.802 328 383.269 328C374.269 328 367.569 325.767 363.169 321.3C358.835 316.767 356.669 310.2 356.669 301.6ZM382.969 280.9C379.969 292.9 378.469 303.633 378.469 313.1C378.469 315.367 378.835 317.233 379.569 318.7C380.369 320.167 381.769 320.9 383.769 320.9C385.835 320.9 387.502 320.433 388.769 319.5C390.035 318.5 391.169 316.9 392.169 314.7C393.769 311.1 395.302 305.5 396.769 297.9C398.302 290.233 399.135 284.833 399.269 281.7C399.402 278.5 399.469 275.7 399.469 273.3C399.469 270.9 399.102 268.933 398.369 267.4C397.635 265.867 396.269 265.1 394.269 265.1C392.335 265.1 390.702 265.7 389.369 266.9C386.902 269.167 384.769 273.833 382.969 280.9ZM425.265 326L437.465 260.3C444.065 259.567 452.165 259.2 461.765 259.2C471.432 259.2 478.498 260.6 482.965 263.4C487.432 266.2 489.665 270.433 489.665 276.1C489.665 281.7 488.198 286.267 485.265 289.8C482.398 293.333 478.465 295.667 473.465 296.8C474.598 302.333 476.465 307.333 479.065 311.8C481.465 316 484.065 318.767 486.865 320.1C485.865 322.9 484.332 324.9 482.265 326.1C480.265 327.367 477.798 328 474.865 328C471.998 328 469.432 327.167 467.165 325.5C464.898 323.767 462.865 321.333 461.065 318.2C457.265 311.4 455.165 302.633 454.765 291.9H455.465C460.398 291.767 464.098 290.433 466.565 287.9C469.032 285.3 470.265 281.3 470.265 275.9C470.265 269.167 467.432 265.667 461.765 265.4H459.565C458.965 265.4 458.498 265.433 458.165 265.5L446.665 326H425.265ZM493.131 326L505.831 260H527.831L514.931 326H493.131ZM582.271 305.3C584.004 306.567 584.871 308.567 584.871 311.3C584.871 313.967 584.271 316.267 583.071 318.2C581.938 320.067 580.238 321.733 577.971 323.2C573.104 326.333 566.404 327.9 557.871 327.9C549.404 327.9 542.838 325.7 538.171 321.3C533.571 316.833 531.271 310.667 531.271 302.8C531.271 291.667 534.171 281.867 539.971 273.4C544.371 267.133 550.504 262.667 558.371 260C562.438 258.667 566.471 258 570.471 258C574.471 258 577.704 258.267 580.171 258.8C582.638 259.333 584.804 260.133 586.671 261.2C590.738 263.533 592.771 266.567 592.771 270.3C592.771 273.7 591.171 276.667 587.971 279.2C585.038 281.467 582.371 282.6 579.971 282.6C577.571 282.6 575.871 282.433 574.871 282.1C575.138 279.7 575.271 277.733 575.271 276.2C575.271 274.6 575.238 273.233 575.171 272.1C575.104 270.967 574.904 269.867 574.571 268.8C573.904 266.333 572.538 265.1 570.471 265.1C568.471 265.1 566.438 266.067 564.371 268C562.371 269.867 560.504 272.4 558.771 275.6C554.838 282.867 552.871 290.8 552.871 299.4C552.871 303.533 554.038 306.8 556.371 309.2C558.704 311.533 562.371 312.7 567.371 312.7C571.104 312.7 574.738 311.467 578.271 309C579.804 307.933 581.138 306.7 582.271 305.3Z" fill="white"/>
<path opacity="0.8" d="M108.8 438.3L106.835 437.928L106.447 439.974L108.508 440.279L108.8 438.3ZM120 379.2L118.039 378.808L118.037 378.818L118.035 378.828L120 379.2ZM121.3 372.9L121.156 370.905L119.663 371.013L119.346 372.475L121.3 372.9ZM156.2 373.2L155.759 375.151L156.2 373.2ZM166.5 377.7L165.294 379.295L165.297 379.298L166.5 377.7ZM141.3 379L140.908 377.039L139.589 377.303L139.336 378.623L141.3 379ZM131 432.7L129.036 432.323L128.75 433.811L130.106 434.489L131 432.7ZM140.1 430.6L139.084 428.877L139.074 428.883L139.064 428.889L140.1 430.6ZM147 423.6L145.317 422.519L145.314 422.524L147 423.6ZM174.6 397.5H172.6C172.6 411.348 168.853 421.379 161.694 427.98C154.505 434.609 143.53 438.1 128.4 438.1V440.1V442.1C144.07 442.1 156.195 438.491 164.406 430.92C172.647 423.321 176.6 412.052 176.6 397.5H174.6ZM128.4 440.1V438.1C123.607 438.1 117.183 437.515 109.092 436.321L108.8 438.3L108.508 440.279C116.684 441.485 123.326 442.1 128.4 442.1V440.1ZM108.8 438.3L110.765 438.672L121.965 379.572L120 379.2L118.035 378.828L106.835 437.928L108.8 438.3ZM120 379.2L121.961 379.592C122.494 376.93 122.924 374.842 123.254 373.325L121.3 372.9L119.346 372.475C119.009 374.024 118.573 376.137 118.039 378.808L120 379.2ZM121.3 372.9L121.444 374.895C131.574 374.162 138.812 373.8 143.2 373.8V371.8V369.8C138.655 369.8 131.292 370.172 121.156 370.905L121.3 372.9ZM143.2 371.8V373.8C147.595 373.8 151.78 374.252 155.759 375.151L156.2 373.2L156.641 371.249C152.353 370.281 147.871 369.8 143.2 369.8V371.8ZM156.2 373.2L155.759 375.151C159.679 376.036 162.835 377.436 165.294 379.295L166.5 377.7L167.706 376.105C164.699 373.831 160.988 372.231 156.641 371.249L156.2 373.2ZM166.5 377.7L165.297 379.298C170.031 382.863 172.6 388.757 172.6 397.5H174.6H176.6C176.6 387.976 173.769 380.67 167.703 376.102L166.5 377.7ZM154 393.8H156C156 388.654 155.087 384.435 152.95 381.458C150.724 378.36 147.388 376.9 143.3 376.9V378.9V380.9C146.345 380.9 148.359 381.924 149.7 383.792C151.13 385.782 152 389.013 152 393.8H154ZM143.3 378.9V376.9H142.3V378.9V380.9H143.3V378.9ZM142.3 378.9V376.9C141.832 376.9 141.368 376.947 140.908 377.039L141.3 379L141.692 380.961C141.899 380.92 142.101 380.9 142.3 380.9V378.9ZM141.3 379L139.336 378.623L129.036 432.323L131 432.7L132.964 433.077L143.264 379.377L141.3 379ZM131 432.7L130.106 434.489C130.617 434.744 131.188 434.9 131.8 434.9V432.9V430.9C131.835 430.9 131.865 430.905 131.885 430.91C131.905 430.915 131.908 430.918 131.894 430.911L131 432.7ZM131.8 432.9V434.9H132.6V432.9V430.9H131.8V432.9ZM132.6 432.9V434.9C135.499 434.9 138.353 433.995 141.136 432.311L140.1 430.6L139.064 428.889C136.78 430.271 134.634 430.9 132.6 430.9V432.9ZM140.1 430.6L141.116 432.323C144.043 430.597 146.555 428.014 148.686 424.676L147 423.6L145.314 422.524C143.445 425.452 141.357 427.537 139.084 428.877L140.1 430.6ZM147 423.6L148.683 424.681C153.631 416.976 156 406.617 156 393.8H154H152C152 406.183 149.702 415.691 145.317 422.519L147 423.6ZM178.62 439L176.656 438.622L176.198 441H178.62V439ZM191.32 373V371H189.668L189.356 372.622L191.32 373ZM213.32 373L215.282 373.384L215.748 371H213.32V373ZM200.42 439V441H202.066L202.382 439.384L200.42 439ZM178.62 439L180.584 439.378L193.284 373.378L191.32 373L189.356 372.622L176.656 438.622L178.62 439ZM191.32 373V375H213.32V373V371H191.32V373ZM213.32 373L211.357 372.616L198.457 438.616L200.42 439L202.382 439.384L215.282 373.384L213.32 373ZM200.42 439V437H178.62V439V441H200.42V439ZM254.559 392.8L252.771 391.906L251.761 393.924L253.887 394.683L254.559 392.8ZM255.759 382.7L253.794 383.069L253.796 383.08L253.798 383.092L255.759 382.7ZM254.759 379.9L253.027 380.899L253.032 380.908L254.759 379.9ZM243.559 380L244.876 381.505L244.887 381.496L244.897 381.487L243.559 380ZM242.259 392.2L240.746 393.507L240.778 393.544L240.811 393.579L242.259 392.2ZM247.259 396.3L248.369 394.636L247.259 396.3ZM253.659 400.3L254.673 398.576V398.576L253.659 400.3ZM260.059 404.7L258.81 406.262L258.813 406.264L260.059 404.7ZM264.259 426.9L262.566 425.836L262.559 425.847L264.259 426.9ZM257.259 434.2L256.107 432.565L256.103 432.568L257.259 434.2ZM219.359 437.7L218.279 439.383L218.291 439.391L218.302 439.398L219.359 437.7ZM221.159 417.8L221.776 419.703L221.798 419.695L221.82 419.688L221.159 417.8ZM232.759 418.4L234.623 419.127L235.362 417.233L233.456 416.525L232.759 418.4ZM243.559 431.5L242.246 429.992L242.234 430.003L242.221 430.013L243.559 431.5ZM244.659 420.5L243.146 421.807L243.162 421.827L243.18 421.845L244.659 420.5ZM239.859 416.6L238.805 418.299L238.826 418.313L238.848 418.325L239.859 416.6ZM233.559 413.1L232.643 414.878L232.654 414.883L232.665 414.889L233.559 413.1ZM227.359 409L228.635 407.459L228.626 407.452L228.617 407.445L227.359 409ZM223.359 384.6L225.047 385.674L225.052 385.665L225.057 385.657L223.359 384.6ZM230.659 377.1L231.769 378.764L231.775 378.76L231.781 378.756L230.659 377.1ZM267.059 374.3L266.002 375.998L266.009 376.002L266.016 376.007L267.059 374.3ZM268.659 391.2L269.897 392.771L269.91 392.76L269.924 392.75L268.659 391.2ZM254.559 392.8L256.348 393.694C257.46 391.471 258.059 389.233 258.059 387H256.059H254.059C254.059 388.501 253.659 390.129 252.771 391.906L254.559 392.8ZM256.059 387H258.059C258.059 385.091 257.959 383.502 257.721 382.308L255.759 382.7L253.798 383.092C253.959 383.898 254.059 385.176 254.059 387H256.059ZM255.759 382.7L257.725 382.331C257.49 381.077 257.087 379.921 256.487 378.892L254.759 379.9L253.032 380.908C253.365 381.479 253.629 382.189 253.794 383.069L255.759 382.7ZM254.759 379.9L256.492 378.901C255.135 376.549 252.975 375.3 250.259 375.3V377.3V379.3C251.544 379.3 252.384 379.785 253.027 380.899L254.759 379.9ZM250.259 377.3V375.3C247.252 375.3 244.553 376.415 242.221 378.513L243.559 380L244.897 381.487C246.566 379.985 248.333 379.3 250.259 379.3V377.3ZM243.559 380L242.242 378.495C239.658 380.756 238.359 383.713 238.359 387.2H240.359H242.359C242.359 384.82 243.194 382.977 244.876 381.505L243.559 380ZM240.359 387.2H238.359C238.359 389.566 239.178 391.692 240.746 393.507L242.259 392.2L243.773 390.893C242.807 389.774 242.359 388.567 242.359 387.2H240.359ZM242.259 392.2L240.811 393.579C242.268 395.109 244.055 396.568 246.15 397.964L247.259 396.3L248.369 394.636C246.464 393.366 244.918 392.091 243.708 390.821L242.259 392.2ZM247.259 396.3L246.15 397.964C248.184 399.32 250.349 400.673 252.645 402.024L253.659 400.3L254.673 398.576C252.436 397.26 250.335 395.947 248.369 394.636L247.259 396.3ZM253.659 400.3L252.645 402.024C254.832 403.31 256.886 404.723 258.81 406.262L260.059 404.7L261.309 403.138C259.232 401.477 257.02 399.957 254.673 398.576L253.659 400.3ZM260.059 404.7L258.813 406.264C263.039 409.632 264.959 413.395 264.959 417.6H266.959H268.959C268.959 411.938 266.28 407.101 261.306 403.136L260.059 404.7ZM266.959 417.6H264.959C264.959 420.551 264.169 423.283 262.566 425.836L264.259 426.9L265.953 427.964C267.95 424.783 268.959 421.316 268.959 417.6H266.959ZM264.259 426.9L262.559 425.847C260.98 428.398 258.84 430.64 256.107 432.565L257.259 434.2L258.411 435.835C261.545 433.627 264.073 431.002 265.96 427.953L264.259 426.9ZM257.259 434.2L256.103 432.568C250.069 436.843 243.047 439 234.959 439V441V443C243.805 443 251.65 440.624 258.415 435.832L257.259 434.2ZM234.959 441V439C228.249 439 223.488 437.915 220.416 436.002L219.359 437.7L218.302 439.398C222.297 441.885 227.937 443 234.959 443V441ZM219.359 437.7L220.439 436.017C217.325 434.019 216.059 431.754 216.059 429.2H214.059H212.059C212.059 433.446 214.327 436.848 218.279 439.383L219.359 437.7ZM214.059 429.2H216.059C216.059 426.412 216.605 424.346 217.532 422.857C218.438 421.403 219.805 420.341 221.776 419.703L221.159 417.8L220.543 415.897C217.781 416.792 215.598 418.397 214.137 420.743C212.697 423.054 212.059 425.921 212.059 429.2H214.059ZM221.159 417.8L221.82 419.688C222.873 419.319 224.298 419.1 226.159 419.1V417.1V415.1C224.02 415.1 222.113 415.347 220.499 415.912L221.159 417.8ZM226.159 417.1V419.1C227.945 419.1 229.908 419.475 232.063 420.275L232.759 418.4L233.456 416.525C230.944 415.592 228.507 415.1 226.159 415.1V417.1ZM232.759 418.4L230.896 417.673C229.756 420.595 229.159 423.442 229.159 426.2H231.159H233.159C233.159 424.024 233.63 421.672 234.623 419.127L232.759 418.4ZM231.159 426.2H229.159C229.159 429.044 229.655 431.535 230.956 433.361C232.345 435.311 234.432 436.2 236.859 436.2V434.2V432.2C235.487 432.2 234.724 431.756 234.213 431.039C233.614 430.198 233.159 428.69 233.159 426.2H231.159ZM236.859 434.2V436.2C239.867 436.2 242.566 435.085 244.897 432.987L243.559 431.5L242.221 430.013C240.553 431.515 238.785 432.2 236.859 432.2V434.2ZM243.559 431.5L244.873 433.008C247.207 430.975 248.659 428.57 248.659 425.8H246.659H244.659C244.659 427.03 244.045 428.425 242.246 429.992L243.559 431.5ZM246.659 425.8H248.659C248.659 423.259 247.823 421.006 246.139 419.155L244.659 420.5L243.18 421.845C244.163 422.927 244.659 424.208 244.659 425.8H246.659ZM244.659 420.5L246.173 419.193C244.743 417.536 242.964 416.102 240.871 414.875L239.859 416.6L238.848 418.325C240.621 419.365 242.043 420.53 243.146 421.807L244.659 420.5ZM239.859 416.6L240.914 414.901C238.923 413.665 236.769 412.469 234.454 411.311L233.559 413.1L232.665 414.889C234.883 415.998 236.929 417.135 238.805 418.299L239.859 416.6ZM233.559 413.1L234.475 411.322C232.405 410.256 230.459 408.969 228.635 407.459L227.359 409L226.084 410.541C228.127 412.231 230.314 413.678 232.643 414.878L233.559 413.1ZM227.359 409L228.617 407.445C224.557 404.161 222.559 399.967 222.559 394.7H220.559H218.559C218.559 401.166 221.095 406.506 226.102 410.555L227.359 409ZM220.559 394.7H222.559C222.559 391.244 223.403 388.257 225.047 385.674L223.359 384.6L221.672 383.526C219.582 386.81 218.559 390.556 218.559 394.7H220.559ZM223.359 384.6L225.057 385.657C226.77 382.904 229.001 380.609 231.769 378.764L230.659 377.1L229.55 375.436C226.318 377.591 223.682 380.296 221.661 383.543L223.359 384.6ZM230.659 377.1L231.781 378.756C237.446 374.916 243.721 373 250.659 373V371V369C242.931 369 235.873 371.151 229.537 375.444L230.659 377.1ZM250.659 371V373C257.938 373 262.948 374.096 266.002 375.998L267.059 374.3L268.116 372.602C264.104 370.104 258.181 369 250.659 369V371ZM267.059 374.3L266.016 376.007C269.114 377.899 270.459 380.265 270.459 383.2H272.459H274.459C274.459 378.668 272.205 375.101 268.102 372.593L267.059 374.3ZM272.459 383.2H270.459C270.459 385.865 269.463 387.963 267.395 389.65L268.659 391.2L269.924 392.75C272.922 390.304 274.459 387.068 274.459 383.2H272.459ZM268.659 391.2L267.422 389.629C265.555 391.099 263.553 391.8 261.359 391.8V393.8V395.8C264.499 395.8 267.363 394.767 269.897 392.771L268.659 391.2ZM261.359 393.8V391.8C258.848 391.8 256.823 391.485 255.232 390.917L254.559 392.8L253.887 394.683C256.029 395.449 258.538 395.8 261.359 395.8V393.8ZM285.844 383.8L287.388 385.071L287.394 385.063L287.401 385.055L285.844 383.8ZM334.044 377.3L332.651 378.736L332.657 378.741L332.663 378.747L334.044 377.3ZM330.244 429.3L331.745 430.622L331.75 430.616L330.244 429.3ZM282.544 434.3L281.098 435.682L281.108 435.693L281.119 435.704L282.544 434.3ZM302.344 393.9L300.406 393.406L300.403 393.415L302.344 393.9ZM298.944 431.7L297.155 432.594L297.171 432.626L297.188 432.658L298.944 431.7ZM308.144 432.5L309.33 434.11L309.357 434.09L309.383 434.07L308.144 432.5ZM311.544 427.7L313.364 428.528L313.368 428.52L313.371 428.512L311.544 427.7ZM316.144 410.9L314.183 410.508L314.18 410.521L316.144 410.9ZM318.644 394.7L320.642 394.785L320.642 394.783L318.644 394.7ZM317.744 380.4L319.548 379.537V379.537L317.744 380.4ZM308.744 379.9L307.406 378.413L307.398 378.42L307.391 378.427L308.744 379.9ZM276.044 414.6H278.044C278.044 402.356 281.211 392.571 287.388 385.071L285.844 383.8L284.3 382.529C277.409 390.896 274.044 401.644 274.044 414.6H276.044ZM285.844 383.8L287.401 385.055C293.916 376.974 302.818 372.9 314.344 372.9V370.9V368.9C301.736 368.9 291.638 373.426 284.287 382.545L285.844 383.8ZM314.344 370.9V372.9C322.779 372.9 328.758 374.96 332.651 378.736L334.044 377.3L335.436 375.864C330.529 371.106 323.375 368.9 314.344 368.9V370.9ZM334.044 377.3L332.663 378.747C336.514 382.423 338.644 388.356 338.644 397H340.644H342.644C342.644 387.777 340.374 380.577 335.425 375.853L334.044 377.3ZM340.644 397H338.644C338.644 410.26 335.269 420.511 328.738 427.984L330.244 429.3L331.75 430.616C339.085 422.223 342.644 410.94 342.644 397H340.644ZM330.244 429.3L328.743 427.978C322.3 435.297 313.673 439 302.644 439V441V443C314.681 443 324.454 438.903 331.745 430.622L330.244 429.3ZM302.644 441V439C293.944 439 287.855 436.842 283.969 432.896L282.544 434.3L281.119 435.704C286.033 440.692 293.343 443 302.644 443V441ZM282.544 434.3L283.99 432.918C280.127 428.877 278.044 422.879 278.044 414.6H276.044H274.044C274.044 423.521 276.294 430.656 281.098 435.682L282.544 434.3ZM302.344 393.9L300.403 393.415C297.375 405.528 295.844 416.429 295.844 426.1H297.844H299.844C299.844 416.838 301.312 406.272 304.284 394.385L302.344 393.9ZM297.844 426.1H295.844C295.844 428.565 296.24 430.765 297.155 432.594L298.944 431.7L300.733 430.806C300.181 429.702 299.844 428.168 299.844 426.1H297.844ZM298.944 431.7L297.188 432.658C298.414 434.905 300.584 435.9 303.144 435.9V433.9V431.9C301.703 431.9 301.074 431.428 300.7 430.742L298.944 431.7ZM303.144 433.9V435.9C305.504 435.9 307.626 435.366 309.33 434.11L308.144 432.5L306.957 430.89C306.128 431.501 304.917 431.9 303.144 431.9V433.9ZM308.144 432.5L309.383 434.07C310.993 432.798 312.293 430.885 313.364 428.528L311.544 427.7L309.723 426.872C308.795 428.915 307.827 430.202 306.904 430.93L308.144 432.5ZM311.544 427.7L313.371 428.512C315.067 424.697 316.634 418.914 318.108 411.279L316.144 410.9L314.18 410.521C312.72 418.086 311.221 423.503 309.716 426.888L311.544 427.7ZM316.144 410.9L318.105 411.292C319.637 403.63 320.501 398.091 320.642 394.785L318.644 394.7L316.646 394.615C316.52 397.575 315.717 402.837 314.183 410.508L316.144 410.9ZM318.644 394.7L320.642 394.783C320.776 391.564 320.844 388.735 320.844 386.3H318.844H316.844C316.844 388.665 316.778 391.436 316.645 394.617L318.644 394.7ZM318.844 386.3H320.844C320.844 383.716 320.452 381.427 319.548 379.537L317.744 380.4L315.939 381.263C316.502 382.439 316.844 384.084 316.844 386.3H318.844ZM317.744 380.4L319.548 379.537C319.019 378.432 318.221 377.533 317.147 376.931C316.093 376.34 314.894 376.1 313.644 376.1V378.1V380.1C314.394 380.1 314.877 380.244 315.19 380.419C315.483 380.584 315.735 380.835 315.939 381.263L317.744 380.4ZM313.644 378.1V376.1C311.258 376.1 309.136 376.856 307.406 378.413L308.744 379.9L310.082 381.387C311.018 380.544 312.163 380.1 313.644 380.1V378.1ZM308.744 379.9L307.391 378.427C304.455 381.125 302.212 386.313 300.406 393.406L302.344 393.9L304.282 394.394C306.075 387.353 308.099 383.209 310.097 381.373L308.744 379.9ZM344.64 439L342.673 438.635L342.234 441H344.64V439ZM356.84 373.3L356.619 371.312L355.144 371.476L354.873 372.935L356.84 373.3ZM402.34 376.4L403.402 374.705V374.705L402.34 376.4ZM404.64 402.8L403.101 401.522L403.094 401.531L403.087 401.54L404.64 402.8ZM392.84 409.8L392.398 407.849L390.487 408.282L390.881 410.201L392.84 409.8ZM398.44 424.8L400.176 423.808L400.172 423.801L400.168 423.794L398.44 424.8ZM406.24 433.1L408.123 433.773L408.731 432.071L407.1 431.294L406.24 433.1ZM401.64 439.1L400.636 437.37L400.602 437.39L400.57 437.41L401.64 439.1ZM386.54 438.5L385.325 440.089L385.34 440.1L385.355 440.111L386.54 438.5ZM380.44 431.2L378.694 432.176L378.7 432.186L378.706 432.196L380.44 431.2ZM374.14 404.9V402.9H372.064L372.141 404.974L374.14 404.9ZM374.84 404.9V406.9H374.867L374.894 406.899L374.84 404.9ZM385.94 400.9L387.373 402.295L387.382 402.286L387.391 402.277L385.94 400.9ZM381.14 378.4L381.234 376.402L381.187 376.4H381.14V378.4ZM377.54 378.5L377.148 376.539L375.827 376.803L375.575 378.127L377.54 378.5ZM366.04 439V441H367.695L368.005 439.373L366.04 439ZM344.64 439L346.606 439.365L358.806 373.665L356.84 373.3L354.873 372.935L342.673 438.635L344.64 439ZM356.84 373.3L357.061 375.288C363.563 374.565 371.584 374.2 381.14 374.2V372.2V370.2C371.495 370.2 363.317 370.568 356.619 371.312L356.84 373.3ZM381.14 372.2V374.2C390.699 374.2 397.298 375.6 401.278 378.095L402.34 376.4L403.402 374.705C398.448 371.6 390.914 370.2 381.14 370.2V372.2ZM402.34 376.4L401.278 378.095C405.11 380.497 407.04 384.06 407.04 389.1H409.04H411.04C411.04 382.807 408.503 377.903 403.402 374.705L402.34 376.4ZM409.04 389.1H407.04C407.04 394.34 405.675 398.422 403.101 401.522L404.64 402.8L406.179 404.078C409.471 400.111 411.04 395.06 411.04 389.1H409.04ZM404.64 402.8L403.087 401.54C400.538 404.681 397.019 406.802 392.398 407.849L392.84 409.8L393.282 411.751C398.661 410.531 403.008 407.985 406.193 404.06L404.64 402.8ZM392.84 409.8L390.881 410.201C392.053 415.928 393.992 421.135 396.711 425.806L398.44 424.8L400.168 423.794C397.687 419.532 395.893 414.739 394.799 409.399L392.84 409.8ZM398.44 424.8L396.703 425.792C399.201 430.163 402.058 433.324 405.38 434.906L406.24 433.1L407.1 431.294C404.822 430.209 402.479 427.837 400.176 423.808L398.44 424.8ZM406.24 433.1L404.356 432.427C403.475 434.894 402.201 436.461 400.636 437.37L401.64 439.1L402.644 440.83C405.212 439.339 407.004 436.906 408.123 433.773L406.24 433.1ZM401.64 439.1L400.57 437.41C398.959 438.431 396.885 439 394.24 439V441V443C397.462 443 400.321 442.303 402.71 440.79L401.64 439.1ZM394.24 441V439C391.791 439 389.641 438.298 387.725 436.889L386.54 438.5L385.355 440.111C387.972 442.036 390.956 443 394.24 443V441ZM386.54 438.5L387.755 436.911C385.747 435.376 383.876 433.166 382.174 430.204L380.44 431.2L378.706 432.196C380.604 435.501 382.8 438.158 385.325 440.089L386.54 438.5ZM380.44 431.2L382.186 430.224C378.587 423.785 376.531 415.356 376.138 404.826L374.14 404.9L372.141 404.974C372.549 415.911 374.692 425.015 378.694 432.176L380.44 431.2ZM374.14 404.9V406.9H374.84V404.9V402.9H374.14V404.9ZM374.84 404.9L374.894 406.899C380.139 406.757 384.419 405.328 387.373 402.295L385.94 400.9L384.507 399.505C382.527 401.538 379.407 402.776 374.786 402.901L374.84 404.9ZM385.94 400.9L387.391 402.277C390.353 399.154 391.64 394.558 391.64 388.9H389.64H387.64C387.64 394.042 386.46 397.446 384.489 399.523L385.94 400.9ZM389.64 388.9H391.64C391.64 385.293 390.887 382.212 389.069 379.967C387.204 377.663 384.478 376.555 381.234 376.402L381.14 378.4L381.046 380.398C383.468 380.512 384.992 381.287 385.96 382.483C386.976 383.738 387.64 385.773 387.64 388.9H389.64ZM381.14 378.4V376.4H378.94V378.4V380.4H381.14V378.4ZM378.94 378.4V376.4C378.292 376.4 377.672 376.434 377.148 376.539L377.54 378.5L377.932 380.461C378.074 380.433 378.388 380.4 378.94 380.4V378.4ZM377.54 378.5L375.575 378.127L364.075 438.627L366.04 439L368.005 439.373L379.505 378.873L377.54 378.5ZM366.04 439V437H344.64V439V441H366.04V439ZM412.706 438.3L410.741 437.928L410.353 439.974L412.414 440.279L412.706 438.3ZM423.906 379.2L421.945 378.808L421.943 378.818L421.941 378.828L423.906 379.2ZM425.206 372.9L425.062 370.905L423.57 371.013L423.252 372.475L425.206 372.9ZM460.106 373.2L459.666 375.151L460.106 373.2ZM470.406 377.7L469.2 379.295L469.203 379.298L470.406 377.7ZM445.206 379L444.814 377.039L443.495 377.303L443.242 378.623L445.206 379ZM434.906 432.7L432.942 432.323L432.657 433.811L434.012 434.489L434.906 432.7ZM444.006 430.6L442.99 428.877L442.98 428.883L442.971 428.889L444.006 430.6ZM450.906 423.6L449.223 422.519L449.22 422.524L450.906 423.6ZM478.506 397.5H476.506C476.506 411.348 472.759 421.379 465.6 427.98C458.411 434.609 447.436 438.1 432.306 438.1V440.1V442.1C447.976 442.1 460.101 438.491 468.312 430.92C476.553 423.321 480.506 412.052 480.506 397.5H478.506ZM432.306 440.1V438.1C427.514 438.1 421.089 437.515 412.998 436.321L412.706 438.3L412.414 440.279C420.59 441.485 427.232 442.1 432.306 442.1V440.1ZM412.706 438.3L414.671 438.672L425.871 379.572L423.906 379.2L421.941 378.828L410.741 437.928L412.706 438.3ZM423.906 379.2L425.867 379.592C426.4 376.93 426.831 374.842 427.161 373.325L425.206 372.9L423.252 372.475C422.915 374.024 422.479 376.137 421.945 378.808L423.906 379.2ZM425.206 372.9L425.351 374.895C435.481 374.162 442.718 373.8 447.106 373.8V371.8V369.8C442.561 369.8 435.199 370.172 425.062 370.905L425.206 372.9ZM447.106 371.8V373.8C451.502 373.8 455.687 374.252 459.666 375.151L460.106 373.2L460.547 371.249C456.259 370.281 451.778 369.8 447.106 369.8V371.8ZM460.106 373.2L459.666 375.151C463.585 376.036 466.741 377.436 469.2 379.295L470.406 377.7L471.612 376.105C468.605 373.831 464.894 372.231 460.547 371.249L460.106 373.2ZM470.406 377.7L469.203 379.298C473.938 382.863 476.506 388.757 476.506 397.5H478.506H480.506C480.506 387.976 477.675 380.67 471.609 376.102L470.406 377.7ZM457.906 393.8H459.906C459.906 388.654 458.993 384.435 456.856 381.458C454.63 378.36 451.294 376.9 447.206 376.9V378.9V380.9C450.251 380.9 452.265 381.924 453.607 383.792C455.036 385.782 455.906 389.013 455.906 393.8H457.906ZM447.206 378.9V376.9H446.206V378.9V380.9H447.206V378.9ZM446.206 378.9V376.9C445.739 376.9 445.274 376.947 444.814 377.039L445.206 379L445.598 380.961C445.805 380.92 446.007 380.9 446.206 380.9V378.9ZM445.206 379L443.242 378.623L432.942 432.323L434.906 432.7L436.87 433.077L447.17 379.377L445.206 379ZM434.906 432.7L434.012 434.489C434.523 434.744 435.094 434.9 435.706 434.9V432.9V430.9C435.741 430.9 435.771 430.905 435.791 430.91C435.811 430.915 435.814 430.918 435.801 430.911L434.906 432.7ZM435.706 432.9V434.9H436.506V432.9V430.9H435.706V432.9ZM436.506 432.9V434.9C439.405 434.9 442.259 433.995 445.042 432.311L444.006 430.6L442.971 428.889C440.687 430.271 438.541 430.9 436.506 430.9V432.9ZM444.006 430.6L445.022 432.323C447.949 430.597 450.461 428.014 452.592 424.676L450.906 423.6L449.22 422.524C447.351 425.452 445.264 427.537 442.99 428.877L444.006 430.6ZM450.906 423.6L452.589 424.681C457.537 416.976 459.906 406.617 459.906 393.8H457.906H455.906C455.906 406.183 453.609 415.691 449.223 422.519L450.906 423.6ZM526.326 423.6L527.894 422.359L526.592 420.714L525.011 422.093L526.326 423.6ZM524.226 438.2L525.373 439.838L525.386 439.829L525.4 439.819L524.226 438.2ZM504.826 440.2L504.515 442.176L504.526 442.177L504.538 442.179L504.826 440.2ZM486.126 438.7L486.279 440.694L486.355 440.688L486.43 440.677L486.126 438.7ZM482.726 439L480.76 438.634L480.273 441.243L482.915 440.991L482.726 439ZM495.026 373V371H493.364L493.06 372.634L495.026 373ZM538.126 373H540.126V371H538.126V373ZM535.126 382.3L533.667 380.932L533.655 380.944L533.644 380.957L535.126 382.3ZM514.726 382.8L515.558 380.981L513.207 379.906L512.756 382.451L514.726 382.8ZM511.626 400.3L509.656 399.951L509.24 402.3H511.626V400.3ZM529.426 400.3H531.426V398.3H529.426V400.3ZM526.826 408.6L528.315 409.935L528.326 409.923L528.337 409.91L526.826 408.6ZM512.826 410.5L513.52 408.625V408.625L512.826 410.5ZM509.826 409.2L511.24 407.786L508.568 405.114L507.861 408.826L509.826 409.2ZM506.226 428.1L504.261 427.726L503.862 429.82L505.978 430.085L506.226 428.1ZM526.326 423.6L524.758 424.841C525.676 426.001 526.226 427.625 526.226 429.9H528.226H530.226C530.226 426.975 529.509 424.399 527.894 422.359L526.326 423.6ZM528.226 429.9H526.226C526.226 432.928 525.146 435.063 523.052 436.581L524.226 438.2L525.4 439.819C528.639 437.471 530.226 434.072 530.226 429.9H528.226ZM524.226 438.2L523.079 436.562C520.834 438.133 517.834 439 513.926 439V441V443C518.417 443 522.284 442 525.373 439.838L524.226 438.2ZM513.926 441V439C511.659 439 508.73 438.747 505.114 438.221L504.826 440.2L504.538 442.179C508.255 442.72 511.393 443 513.926 443V441ZM504.826 440.2L505.137 438.224C497.974 437.097 493.112 436.5 490.726 436.5V438.5V440.5C492.74 440.5 497.277 441.036 504.515 442.176L504.826 440.2ZM490.726 438.5V436.5C488.531 436.5 486.857 436.564 485.822 436.723L486.126 438.7L486.43 440.677C487.128 440.569 488.521 440.5 490.726 440.5V438.5ZM486.126 438.7L485.972 436.706C485.089 436.774 483.942 436.875 482.536 437.009L482.726 439L482.915 440.991C484.31 440.858 485.43 440.759 486.279 440.694L486.126 438.7ZM482.726 439L484.692 439.366L496.992 373.366L495.026 373L493.06 372.634L480.76 438.634L482.726 439ZM495.026 373V375H538.126V373V371H495.026V373ZM538.126 373H536.126C536.126 376.759 535.203 379.293 533.667 380.932L535.126 382.3L536.585 383.668C539.049 381.04 540.126 377.375 540.126 373H538.126ZM535.126 382.3L533.644 380.957C532.207 382.542 529.931 383.5 526.426 383.5V385.5V387.5C530.654 387.5 534.178 386.324 536.608 383.643L535.126 382.3ZM526.426 385.5V383.5C522.879 383.5 519.261 382.676 515.558 380.981L514.726 382.8L513.894 384.619C518.057 386.524 522.24 387.5 526.426 387.5V385.5ZM514.726 382.8L512.756 382.451L509.656 399.951L511.626 400.3L513.595 400.649L516.695 383.149L514.726 382.8ZM511.626 400.3V402.3H529.426V400.3V398.3H511.626V400.3ZM529.426 400.3H527.426C527.426 403.515 526.64 405.76 525.314 407.29L526.826 408.6L528.337 409.91C530.478 407.44 531.426 404.151 531.426 400.3H529.426ZM526.826 408.6L525.337 407.265C524.034 408.718 522.273 409.5 519.826 409.5V411.5V413.5C523.246 413.5 526.151 412.349 528.315 409.935L526.826 408.6ZM519.826 411.5V409.5C517.091 409.5 515.017 409.179 513.52 408.625L512.826 410.5L512.131 412.375C514.235 413.155 516.828 413.5 519.826 413.5V411.5ZM512.826 410.5L513.52 408.625C512.633 408.296 511.972 408.035 511.521 407.84C511.294 407.741 511.145 407.67 511.059 407.625C511.016 407.602 511.008 407.596 511.023 407.606C511.023 407.606 511.12 407.666 511.24 407.786L509.826 409.2L508.412 410.614C508.697 410.9 509.044 411.084 509.192 411.163C509.406 411.275 509.658 411.392 509.931 411.51C510.479 411.748 511.219 412.037 512.131 412.375L512.826 410.5ZM509.826 409.2L507.861 408.826L504.261 427.726L506.226 428.1L508.19 428.474L511.79 409.574L509.826 409.2ZM506.226 428.1L505.978 430.085C507.702 430.3 510.1 430.4 513.126 430.4V428.4V426.4C510.151 426.4 507.949 426.3 506.474 426.115L506.226 428.1ZM513.126 428.4V430.4C518.714 430.4 523.589 428.643 527.641 425.107L526.326 423.6L525.011 422.093C521.73 424.957 517.804 426.4 513.126 426.4V428.4ZM536.534 439L534.568 438.635L534.129 441H536.534V439ZM548.734 373.3L548.514 371.312L547.039 371.476L546.768 372.935L548.734 373.3ZM594.234 376.4L595.297 374.705V374.705L594.234 376.4ZM596.534 402.8L594.996 401.522L594.988 401.531L594.981 401.54L596.534 402.8ZM584.734 409.8L584.292 407.849L582.382 408.282L582.775 410.201L584.734 409.8ZM590.334 424.8L592.071 423.808L592.067 423.801L592.063 423.794L590.334 424.8ZM598.134 433.1L600.018 433.773L600.626 432.071L598.994 431.294L598.134 433.1ZM593.534 439.1L592.53 437.37L592.497 437.39L592.464 437.41L593.534 439.1ZM578.434 438.5L577.219 440.089L577.234 440.1L577.25 440.111L578.434 438.5ZM572.334 431.2L570.589 432.176L570.594 432.186L570.6 432.196L572.334 431.2ZM566.034 404.9V402.9H563.958L564.036 404.974L566.034 404.9ZM566.734 404.9V406.9H566.761L566.788 406.899L566.734 404.9ZM577.834 400.9L579.267 402.295L579.276 402.286L579.285 402.277L577.834 400.9ZM573.034 378.4L573.128 376.402L573.081 376.4H573.034V378.4ZM569.434 378.5L569.042 376.539L567.721 376.803L567.47 378.127L569.434 378.5ZM557.934 439V441H559.59L559.899 439.373L557.934 439ZM536.534 439L538.501 439.365L550.701 373.665L548.734 373.3L546.768 372.935L534.568 438.635L536.534 439ZM548.734 373.3L548.955 375.288C555.458 374.565 563.479 374.2 573.034 374.2V372.2V370.2C563.39 370.2 555.211 370.568 548.514 371.312L548.734 373.3ZM573.034 372.2V374.2C582.594 374.2 589.193 375.6 593.172 378.095L594.234 376.4L595.297 374.705C590.343 371.6 582.809 370.2 573.034 370.2V372.2ZM594.234 376.4L593.172 378.095C597.005 380.497 598.934 384.06 598.934 389.1H600.934H602.934C602.934 382.807 600.397 377.903 595.297 374.705L594.234 376.4ZM600.934 389.1H598.934C598.934 394.34 597.569 398.422 594.996 401.522L596.534 402.8L598.073 404.078C601.366 400.111 602.934 395.06 602.934 389.1H600.934ZM596.534 402.8L594.981 401.54C592.433 404.681 588.913 406.802 584.292 407.849L584.734 409.8L585.176 411.751C590.555 410.531 594.903 407.985 598.087 404.06L596.534 402.8ZM584.734 409.8L582.775 410.201C583.948 415.928 585.887 421.135 588.606 425.806L590.334 424.8L592.063 423.794C589.582 419.532 587.787 414.739 586.694 409.399L584.734 409.8ZM590.334 424.8L588.598 425.792C591.095 430.163 593.953 433.324 597.275 434.906L598.134 433.1L598.994 431.294C596.716 430.209 594.374 427.837 592.071 423.808L590.334 424.8ZM598.134 433.1L596.251 432.427C595.37 434.894 594.096 436.461 592.53 437.37L593.534 439.1L594.539 440.83C597.106 439.339 598.899 436.906 600.018 433.773L598.134 433.1ZM593.534 439.1L592.464 437.41C590.853 438.431 588.779 439 586.134 439V441V443C589.356 443 592.216 442.303 594.604 440.79L593.534 439.1ZM586.134 441V439C583.685 439 581.535 438.298 579.619 436.889L578.434 438.5L577.25 440.111C579.867 442.036 582.85 443 586.134 443V441ZM578.434 438.5L579.649 436.911C577.641 435.376 575.77 433.166 574.069 430.204L572.334 431.2L570.6 432.196C572.498 435.501 574.694 438.158 577.219 440.089L578.434 438.5ZM572.334 431.2L574.08 430.224C570.482 423.785 568.425 415.356 568.033 404.826L566.034 404.9L564.036 404.974C564.443 415.911 566.587 425.015 570.589 432.176L572.334 431.2ZM566.034 404.9V406.9H566.734V404.9V402.9H566.034V404.9ZM566.734 404.9L566.788 406.899C572.034 406.757 576.314 405.328 579.267 402.295L577.834 400.9L576.401 399.505C574.422 401.538 571.301 402.776 566.68 402.901L566.734 404.9ZM577.834 400.9L579.285 402.277C582.247 399.154 583.534 394.558 583.534 388.9H581.534H579.534C579.534 394.042 578.355 397.446 576.383 399.523L577.834 400.9ZM581.534 388.9H583.534C583.534 385.293 582.781 382.212 580.964 379.967C579.099 377.663 576.373 376.555 573.128 376.402L573.034 378.4L572.94 380.398C575.363 380.512 576.887 381.287 577.855 382.483C578.871 383.738 579.534 385.773 579.534 388.9H581.534ZM573.034 378.4V376.4H570.834V378.4V380.4H573.034V378.4ZM570.834 378.4V376.4C570.186 376.4 569.567 376.434 569.042 376.539L569.434 378.5L569.827 380.461C569.969 380.433 570.283 380.4 570.834 380.4V378.4ZM569.434 378.5L567.47 378.127L555.97 438.627L557.934 439L559.899 439.373L571.399 378.873L569.434 378.5ZM557.934 439V437H536.534V439V441H557.934V439Z" fill="#983F5D"/>
<path opacity="0.8" d="M172.6 393.5C172.6 421.9 157.2 436.1 126.4 436.1C121.467 436.1 114.933 435.5 106.8 434.3L118 375.2C118.533 372.533 118.967 370.433 119.3 368.9C129.433 368.167 136.733 367.8 141.2 367.8C145.733 367.8 150.067 368.267 154.2 369.2C158.333 370.133 161.767 371.633 164.5 373.7C169.9 377.767 172.6 384.367 172.6 393.5ZM152 389.8C152 379.867 148.433 374.9 141.3 374.9H140.3C139.967 374.9 139.633 374.933 139.3 375L129 428.7C129.267 428.833 129.533 428.9 129.8 428.9H130.6C133.067 428.9 135.567 428.133 138.1 426.6C140.7 425.067 143 422.733 145 419.6C149.667 412.333 152 402.4 152 389.8ZM176.62 435L189.32 369H211.32L198.42 435H176.62ZM252.559 388.8C253.559 386.8 254.059 384.867 254.059 383C254.059 381.133 253.959 379.7 253.759 378.7C253.559 377.633 253.226 376.7 252.759 375.9C251.759 374.167 250.259 373.3 248.259 373.3C245.793 373.3 243.559 374.2 241.559 376C239.426 377.867 238.359 380.267 238.359 383.2C238.359 385.067 238.993 386.733 240.259 388.2C241.593 389.6 243.259 390.967 245.259 392.3C247.259 393.633 249.393 394.967 251.659 396.3C253.926 397.633 256.059 399.1 258.059 400.7C262.659 404.367 264.959 408.667 264.959 413.6C264.959 416.933 264.059 420.033 262.259 422.9C260.526 425.7 258.193 428.133 255.259 430.2C248.859 434.733 241.426 437 232.959 437C226.093 437 220.893 435.9 217.359 433.7C213.826 431.433 212.059 428.6 212.059 425.2C212.059 419.133 214.426 415.333 219.159 413.8C220.493 413.333 222.159 413.1 224.159 413.1C226.226 413.1 228.426 413.533 230.759 414.4C229.693 417.133 229.159 419.733 229.159 422.2C229.159 427.533 231.059 430.2 234.859 430.2C237.326 430.2 239.559 429.3 241.559 427.5C243.626 425.7 244.659 423.8 244.659 421.8C244.659 419.733 243.993 417.967 242.659 416.5C241.393 415.033 239.793 413.733 237.859 412.6C235.926 411.4 233.826 410.233 231.559 409.1C229.359 407.967 227.293 406.6 225.359 405C220.826 401.333 218.559 396.567 218.559 390.7C218.559 386.9 219.493 383.533 221.359 380.6C223.226 377.6 225.659 375.1 228.659 373.1C234.659 369.033 241.326 367 248.659 367C256.059 367 261.526 368.1 265.059 370.3C268.659 372.5 270.459 375.467 270.459 379.2C270.459 382.467 269.193 385.133 266.659 387.2C264.459 388.933 262.026 389.8 259.359 389.8C256.693 389.8 254.426 389.467 252.559 388.8ZM274.044 410.6C274.044 398 277.31 387.733 283.844 379.8C290.777 371.2 300.277 366.9 312.344 366.9C321.077 366.9 327.644 369.033 332.044 373.3C336.444 377.5 338.644 384.067 338.644 393C338.644 406.6 335.177 417.367 328.244 425.3C321.377 433.1 312.177 437 300.644 437C291.644 437 284.944 434.767 280.544 430.3C276.21 425.767 274.044 419.2 274.044 410.6ZM300.344 389.9C297.344 401.9 295.844 412.633 295.844 422.1C295.844 424.367 296.21 426.233 296.944 427.7C297.744 429.167 299.144 429.9 301.144 429.9C303.21 429.9 304.877 429.433 306.144 428.5C307.41 427.5 308.544 425.9 309.544 423.7C311.144 420.1 312.677 414.5 314.144 406.9C315.677 399.233 316.51 393.833 316.644 390.7C316.777 387.5 316.844 384.7 316.844 382.3C316.844 379.9 316.477 377.933 315.744 376.4C315.01 374.867 313.644 374.1 311.644 374.1C309.71 374.1 308.077 374.7 306.744 375.9C304.277 378.167 302.144 382.833 300.344 389.9ZM342.64 435L354.84 369.3C361.44 368.567 369.54 368.2 379.14 368.2C388.807 368.2 395.873 369.6 400.34 372.4C404.807 375.2 407.04 379.433 407.04 385.1C407.04 390.7 405.573 395.267 402.64 398.8C399.773 402.333 395.84 404.667 390.84 405.8C391.973 411.333 393.84 416.333 396.44 420.8C398.84 425 401.44 427.767 404.24 429.1C403.24 431.9 401.707 433.9 399.64 435.1C397.64 436.367 395.173 437 392.24 437C389.373 437 386.807 436.167 384.54 434.5C382.273 432.767 380.24 430.333 378.44 427.2C374.64 420.4 372.54 411.633 372.14 400.9H372.84C377.773 400.767 381.473 399.433 383.94 396.9C386.407 394.3 387.64 390.3 387.64 384.9C387.64 378.167 384.807 374.667 379.14 374.4H376.94C376.34 374.4 375.873 374.433 375.54 374.5L364.04 435H342.64ZM476.506 393.5C476.506 421.9 461.106 436.1 430.306 436.1C425.373 436.1 418.84 435.5 410.706 434.3L421.906 375.2C422.44 372.533 422.873 370.433 423.206 368.9C433.34 368.167 440.64 367.8 445.106 367.8C449.64 367.8 453.973 368.267 458.106 369.2C462.24 370.133 465.673 371.633 468.406 373.7C473.806 377.767 476.506 384.367 476.506 393.5ZM455.906 389.8C455.906 379.867 452.34 374.9 445.206 374.9H444.206C443.873 374.9 443.54 374.933 443.206 375L432.906 428.7C433.173 428.833 433.44 428.9 433.706 428.9H434.506C436.973 428.9 439.473 428.133 442.006 426.6C444.606 425.067 446.906 422.733 448.906 419.6C453.573 412.333 455.906 402.4 455.906 389.8ZM524.326 419.6C525.592 421.2 526.226 423.3 526.226 425.9C526.226 429.5 524.892 432.267 522.226 434.2C519.559 436.067 516.126 437 511.926 437C509.526 437 506.492 436.733 502.826 436.2C495.626 435.067 490.926 434.5 488.726 434.5C486.526 434.5 484.992 434.567 484.126 434.7C483.259 434.767 482.126 434.867 480.726 435L493.026 369H536.126C536.126 373.067 535.126 376.167 533.126 378.3C531.192 380.433 528.292 381.5 524.426 381.5C520.559 381.5 516.659 380.6 512.726 378.8L509.626 396.3H527.426C527.426 399.833 526.559 402.6 524.826 404.6C523.092 406.533 520.759 407.5 517.826 407.5C514.959 407.5 512.626 407.167 510.826 406.5C509.026 405.833 508.026 405.4 507.826 405.2L504.226 424.1C505.826 424.3 508.126 424.4 511.126 424.4C516.259 424.4 520.659 422.8 524.326 419.6ZM534.534 435L546.734 369.3C553.334 368.567 561.434 368.2 571.034 368.2C580.701 368.2 587.768 369.6 592.234 372.4C596.701 375.2 598.934 379.433 598.934 385.1C598.934 390.7 597.468 395.267 594.534 398.8C591.668 402.333 587.734 404.667 582.734 405.8C583.868 411.333 585.734 416.333 588.334 420.8C590.734 425 593.334 427.767 596.134 429.1C595.134 431.9 593.601 433.9 591.534 435.1C589.534 436.367 587.068 437 584.134 437C581.268 437 578.701 436.167 576.434 434.5C574.168 432.767 572.134 430.333 570.334 427.2C566.534 420.4 564.434 411.633 564.034 400.9H564.734C569.668 400.767 573.368 399.433 575.834 396.9C578.301 394.3 579.534 390.3 579.534 384.9C579.534 378.167 576.701 374.667 571.034 374.4H568.834C568.234 374.4 567.768 374.433 567.434 374.5L555.934 435H534.534Z" fill="#983F5D"/>
<path opacity="0.7" d="M168.6 389.5C168.6 417.9 153.2 432.1 122.4 432.1C117.467 432.1 110.933 431.5 102.8 430.3L114 371.2C114.533 368.533 114.967 366.433 115.3 364.9C125.433 364.167 132.733 363.8 137.2 363.8C141.733 363.8 146.067 364.267 150.2 365.2C154.333 366.133 157.767 367.633 160.5 369.7C165.9 373.767 168.6 380.367 168.6 389.5ZM148 385.8C148 375.867 144.433 370.9 137.3 370.9H136.3C135.967 370.9 135.633 370.933 135.3 371L125 424.7C125.267 424.833 125.533 424.9 125.8 424.9H126.6C129.067 424.9 131.567 424.133 134.1 422.6C136.7 421.067 139 418.733 141 415.6C145.667 408.333 148 398.4 148 385.8ZM172.62 431L185.32 365H207.32L194.42 431H172.62ZM248.559 384.8C249.559 382.8 250.059 380.867 250.059 379C250.059 377.133 249.959 375.7 249.759 374.7C249.559 373.633 249.226 372.7 248.759 371.9C247.759 370.167 246.259 369.3 244.259 369.3C241.793 369.3 239.559 370.2 237.559 372C235.426 373.867 234.359 376.267 234.359 379.2C234.359 381.067 234.993 382.733 236.259 384.2C237.593 385.6 239.259 386.967 241.259 388.3C243.259 389.633 245.393 390.967 247.659 392.3C249.926 393.633 252.059 395.1 254.059 396.7C258.659 400.367 260.959 404.667 260.959 409.6C260.959 412.933 260.059 416.033 258.259 418.9C256.526 421.7 254.193 424.133 251.259 426.2C244.859 430.733 237.426 433 228.959 433C222.093 433 216.893 431.9 213.359 429.7C209.826 427.433 208.059 424.6 208.059 421.2C208.059 415.133 210.426 411.333 215.159 409.8C216.493 409.333 218.159 409.1 220.159 409.1C222.226 409.1 224.426 409.533 226.759 410.4C225.693 413.133 225.159 415.733 225.159 418.2C225.159 423.533 227.059 426.2 230.859 426.2C233.326 426.2 235.559 425.3 237.559 423.5C239.626 421.7 240.659 419.8 240.659 417.8C240.659 415.733 239.993 413.967 238.659 412.5C237.393 411.033 235.793 409.733 233.859 408.6C231.926 407.4 229.826 406.233 227.559 405.1C225.359 403.967 223.293 402.6 221.359 401C216.826 397.333 214.559 392.567 214.559 386.7C214.559 382.9 215.493 379.533 217.359 376.6C219.226 373.6 221.659 371.1 224.659 369.1C230.659 365.033 237.326 363 244.659 363C252.059 363 257.526 364.1 261.059 366.3C264.659 368.5 266.459 371.467 266.459 375.2C266.459 378.467 265.193 381.133 262.659 383.2C260.459 384.933 258.026 385.8 255.359 385.8C252.693 385.8 250.426 385.467 248.559 384.8ZM270.044 406.6C270.044 394 273.31 383.733 279.844 375.8C286.777 367.2 296.277 362.9 308.344 362.9C317.077 362.9 323.644 365.033 328.044 369.3C332.444 373.5 334.644 380.067 334.644 389C334.644 402.6 331.177 413.367 324.244 421.3C317.377 429.1 308.177 433 296.644 433C287.644 433 280.944 430.767 276.544 426.3C272.21 421.767 270.044 415.2 270.044 406.6ZM296.344 385.9C293.344 397.9 291.844 408.633 291.844 418.1C291.844 420.367 292.21 422.233 292.944 423.7C293.744 425.167 295.144 425.9 297.144 425.9C299.21 425.9 300.877 425.433 302.144 424.5C303.41 423.5 304.544 421.9 305.544 419.7C307.144 416.1 308.677 410.5 310.144 402.9C311.677 395.233 312.51 389.833 312.644 386.7C312.777 383.5 312.844 380.7 312.844 378.3C312.844 375.9 312.477 373.933 311.744 372.4C311.01 370.867 309.644 370.1 307.644 370.1C305.71 370.1 304.077 370.7 302.744 371.9C300.277 374.167 298.144 378.833 296.344 385.9ZM338.64 431L350.84 365.3C357.44 364.567 365.54 364.2 375.14 364.2C384.807 364.2 391.873 365.6 396.34 368.4C400.807 371.2 403.04 375.433 403.04 381.1C403.04 386.7 401.573 391.267 398.64 394.8C395.773 398.333 391.84 400.667 386.84 401.8C387.973 407.333 389.84 412.333 392.44 416.8C394.84 421 397.44 423.767 400.24 425.1C399.24 427.9 397.707 429.9 395.64 431.1C393.64 432.367 391.173 433 388.24 433C385.373 433 382.807 432.167 380.54 430.5C378.273 428.767 376.24 426.333 374.44 423.2C370.64 416.4 368.54 407.633 368.14 396.9H368.84C373.773 396.767 377.473 395.433 379.94 392.9C382.407 390.3 383.64 386.3 383.64 380.9C383.64 374.167 380.807 370.667 375.14 370.4H372.94C372.34 370.4 371.873 370.433 371.54 370.5L360.04 431H338.64ZM472.506 389.5C472.506 417.9 457.106 432.1 426.306 432.1C421.373 432.1 414.84 431.5 406.706 430.3L417.906 371.2C418.44 368.533 418.873 366.433 419.206 364.9C429.34 364.167 436.64 363.8 441.106 363.8C445.64 363.8 449.973 364.267 454.106 365.2C458.24 366.133 461.673 367.633 464.406 369.7C469.806 373.767 472.506 380.367 472.506 389.5ZM451.906 385.8C451.906 375.867 448.34 370.9 441.206 370.9H440.206C439.873 370.9 439.54 370.933 439.206 371L428.906 424.7C429.173 424.833 429.44 424.9 429.706 424.9H430.506C432.973 424.9 435.473 424.133 438.006 422.6C440.606 421.067 442.906 418.733 444.906 415.6C449.573 408.333 451.906 398.4 451.906 385.8ZM520.326 415.6C521.592 417.2 522.226 419.3 522.226 421.9C522.226 425.5 520.892 428.267 518.226 430.2C515.559 432.067 512.126 433 507.926 433C505.526 433 502.492 432.733 498.826 432.2C491.626 431.067 486.926 430.5 484.726 430.5C482.526 430.5 480.992 430.567 480.126 430.7C479.259 430.767 478.126 430.867 476.726 431L489.026 365H532.126C532.126 369.067 531.126 372.167 529.126 374.3C527.192 376.433 524.292 377.5 520.426 377.5C516.559 377.5 512.659 376.6 508.726 374.8L505.626 392.3H523.426C523.426 395.833 522.559 398.6 520.826 400.6C519.092 402.533 516.759 403.5 513.826 403.5C510.959 403.5 508.626 403.167 506.826 402.5C505.026 401.833 504.026 401.4 503.826 401.2L500.226 420.1C501.826 420.3 504.126 420.4 507.126 420.4C512.259 420.4 516.659 418.8 520.326 415.6ZM530.534 431L542.734 365.3C549.334 364.567 557.434 364.2 567.034 364.2C576.701 364.2 583.768 365.6 588.234 368.4C592.701 371.2 594.934 375.433 594.934 381.1C594.934 386.7 593.468 391.267 590.534 394.8C587.668 398.333 583.734 400.667 578.734 401.8C579.868 407.333 581.734 412.333 584.334 416.8C586.734 421 589.334 423.767 592.134 425.1C591.134 427.9 589.601 429.9 587.534 431.1C585.534 432.367 583.068 433 580.134 433C577.268 433 574.701 432.167 572.434 430.5C570.168 428.767 568.134 426.333 566.334 423.2C562.534 416.4 560.434 407.633 560.034 396.9H560.734C565.668 396.767 569.368 395.433 571.834 392.9C574.301 390.3 575.534 386.3 575.534 380.9C575.534 374.167 572.701 370.667 567.034 370.4H564.834C564.234 370.4 563.768 370.433 563.434 370.5L551.934 431H530.534Z" fill="white"/>
<path d="M163.6 384.5C163.6 412.9 148.2 427.1 117.4 427.1C112.467 427.1 105.933 426.5 97.8 425.3L109 366.2C109.533 363.533 109.967 361.433 110.3 359.9C120.433 359.167 127.733 358.8 132.2 358.8C136.733 358.8 141.067 359.267 145.2 360.2C149.333 361.133 152.767 362.633 155.5 364.7C160.9 368.767 163.6 375.367 163.6 384.5ZM143 380.8C143 370.867 139.433 365.9 132.3 365.9H131.3C130.967 365.9 130.633 365.933 130.3 366L120 419.7C120.267 419.833 120.533 419.9 120.8 419.9H121.6C124.067 419.9 126.567 419.133 129.1 417.6C131.7 416.067 134 413.733 136 410.6C140.667 403.333 143 393.4 143 380.8ZM167.62 426L180.32 360H202.32L189.42 426H167.62ZM243.559 379.8C244.559 377.8 245.059 375.867 245.059 374C245.059 372.133 244.959 370.7 244.759 369.7C244.559 368.633 244.226 367.7 243.759 366.9C242.759 365.167 241.259 364.3 239.259 364.3C236.793 364.3 234.559 365.2 232.559 367C230.426 368.867 229.359 371.267 229.359 374.2C229.359 376.067 229.993 377.733 231.259 379.2C232.593 380.6 234.259 381.967 236.259 383.3C238.259 384.633 240.393 385.967 242.659 387.3C244.926 388.633 247.059 390.1 249.059 391.7C253.659 395.367 255.959 399.667 255.959 404.6C255.959 407.933 255.059 411.033 253.259 413.9C251.526 416.7 249.193 419.133 246.259 421.2C239.859 425.733 232.426 428 223.959 428C217.093 428 211.893 426.9 208.359 424.7C204.826 422.433 203.059 419.6 203.059 416.2C203.059 410.133 205.426 406.333 210.159 404.8C211.493 404.333 213.159 404.1 215.159 404.1C217.226 404.1 219.426 404.533 221.759 405.4C220.693 408.133 220.159 410.733 220.159 413.2C220.159 418.533 222.059 421.2 225.859 421.2C228.326 421.2 230.559 420.3 232.559 418.5C234.626 416.7 235.659 414.8 235.659 412.8C235.659 410.733 234.993 408.967 233.659 407.5C232.393 406.033 230.793 404.733 228.859 403.6C226.926 402.4 224.826 401.233 222.559 400.1C220.359 398.967 218.293 397.6 216.359 396C211.826 392.333 209.559 387.567 209.559 381.7C209.559 377.9 210.493 374.533 212.359 371.6C214.226 368.6 216.659 366.1 219.659 364.1C225.659 360.033 232.326 358 239.659 358C247.059 358 252.526 359.1 256.059 361.3C259.659 363.5 261.459 366.467 261.459 370.2C261.459 373.467 260.193 376.133 257.659 378.2C255.459 379.933 253.026 380.8 250.359 380.8C247.693 380.8 245.426 380.467 243.559 379.8ZM265.044 401.6C265.044 389 268.31 378.733 274.844 370.8C281.777 362.2 291.277 357.9 303.344 357.9C312.077 357.9 318.644 360.033 323.044 364.3C327.444 368.5 329.644 375.067 329.644 384C329.644 397.6 326.177 408.367 319.244 416.3C312.377 424.1 303.177 428 291.644 428C282.644 428 275.944 425.767 271.544 421.3C267.21 416.767 265.044 410.2 265.044 401.6ZM291.344 380.9C288.344 392.9 286.844 403.633 286.844 413.1C286.844 415.367 287.21 417.233 287.944 418.7C288.744 420.167 290.144 420.9 292.144 420.9C294.21 420.9 295.877 420.433 297.144 419.5C298.41 418.5 299.544 416.9 300.544 414.7C302.144 411.1 303.677 405.5 305.144 397.9C306.677 390.233 307.51 384.833 307.644 381.7C307.777 378.5 307.844 375.7 307.844 373.3C307.844 370.9 307.477 368.933 306.744 367.4C306.01 365.867 304.644 365.1 302.644 365.1C300.71 365.1 299.077 365.7 297.744 366.9C295.277 369.167 293.144 373.833 291.344 380.9ZM333.64 426L345.84 360.3C352.44 359.567 360.54 359.2 370.14 359.2C379.807 359.2 386.873 360.6 391.34 363.4C395.807 366.2 398.04 370.433 398.04 376.1C398.04 381.7 396.573 386.267 393.64 389.8C390.773 393.333 386.84 395.667 381.84 396.8C382.973 402.333 384.84 407.333 387.44 411.8C389.84 416 392.44 418.767 395.24 420.1C394.24 422.9 392.707 424.9 390.64 426.1C388.64 427.367 386.173 428 383.24 428C380.373 428 377.807 427.167 375.54 425.5C373.273 423.767 371.24 421.333 369.44 418.2C365.64 411.4 363.54 402.633 363.14 391.9H363.84C368.773 391.767 372.473 390.433 374.94 387.9C377.407 385.3 378.64 381.3 378.64 375.9C378.64 369.167 375.807 365.667 370.14 365.4H367.94C367.34 365.4 366.873 365.433 366.54 365.5L355.04 426H333.64ZM467.506 384.5C467.506 412.9 452.106 427.1 421.306 427.1C416.373 427.1 409.84 426.5 401.706 425.3L412.906 366.2C413.44 363.533 413.873 361.433 414.206 359.9C424.34 359.167 431.64 358.8 436.106 358.8C440.64 358.8 444.973 359.267 449.106 360.2C453.24 361.133 456.673 362.633 459.406 364.7C464.806 368.767 467.506 375.367 467.506 384.5ZM446.906 380.8C446.906 370.867 443.34 365.9 436.206 365.9H435.206C434.873 365.9 434.54 365.933 434.206 366L423.906 419.7C424.173 419.833 424.44 419.9 424.706 419.9H425.506C427.973 419.9 430.473 419.133 433.006 417.6C435.606 416.067 437.906 413.733 439.906 410.6C444.573 403.333 446.906 393.4 446.906 380.8ZM515.326 410.6C516.592 412.2 517.226 414.3 517.226 416.9C517.226 420.5 515.892 423.267 513.226 425.2C510.559 427.067 507.126 428 502.926 428C500.526 428 497.492 427.733 493.826 427.2C486.626 426.067 481.926 425.5 479.726 425.5C477.526 425.5 475.992 425.567 475.126 425.7C474.259 425.767 473.126 425.867 471.726 426L484.026 360H527.126C527.126 364.067 526.126 367.167 524.126 369.3C522.192 371.433 519.292 372.5 515.426 372.5C511.559 372.5 507.659 371.6 503.726 369.8L500.626 387.3H518.426C518.426 390.833 517.559 393.6 515.826 395.6C514.092 397.533 511.759 398.5 508.826 398.5C505.959 398.5 503.626 398.167 501.826 397.5C500.026 396.833 499.026 396.4 498.826 396.2L495.226 415.1C496.826 415.3 499.126 415.4 502.126 415.4C507.259 415.4 511.659 413.8 515.326 410.6ZM525.534 426L537.734 360.3C544.334 359.567 552.434 359.2 562.034 359.2C571.701 359.2 578.768 360.6 583.234 363.4C587.701 366.2 589.934 370.433 589.934 376.1C589.934 381.7 588.468 386.267 585.534 389.8C582.668 393.333 578.734 395.667 573.734 396.8C574.868 402.333 576.734 407.333 579.334 411.8C581.734 416 584.334 418.767 587.134 420.1C586.134 422.9 584.601 424.9 582.534 426.1C580.534 427.367 578.068 428 575.134 428C572.268 428 569.701 427.167 567.434 425.5C565.168 423.767 563.134 421.333 561.334 418.2C557.534 411.4 555.434 402.633 555.034 391.9H555.734C560.668 391.767 564.368 390.433 566.834 387.9C569.301 385.3 570.534 381.3 570.534 375.9C570.534 369.167 567.701 365.667 562.034 365.4H559.834C559.234 365.4 558.768 365.433 558.434 365.5L546.934 426H525.534Z" fill="white"/>
</svg>
